<!DOCTYPE svg PUBLIC "-//W3C//DTD SVG 1.1//EN" "http://www.w3.org/Graphics/SVG/1.1/DTD/svg11.dtd">
<!-- Uploaded to: SVG Repo, www.svgrepo.com, Transformed by: SVG Repo Mixer Tools -->
<svg height="256px" width="256px" version="1.1" id="_x32_" xmlns="http://www.w3.org/2000/svg" xmlns:xlink="http://www.w3.org/1999/xlink" viewBox="0 0 512.00 512.00" xml:space="preserve" fill="#ff6600" stroke="#ff6600" transform="matrix(1, 0, 0, 1, 0, 0)rotate(0)" stroke-width="0.00512">
<g id="SVGRepo_bgCarrier" stroke-width="0"/>
<g id="SVGRepo_tracerCarrier" stroke-linecap="round" stroke-linejoin="round" stroke="#CCCCCC" stroke-width="1.024"/>
<g id="SVGRepo_iconCarrier"> <style type="text/css"> .st0{fill:#DD6B20;} </style> <g> <path class="st0" d="M312.969,423.734c-0.03-0.016-0.06-0.03-0.099-0.046c-0.25-0.106-0.509-0.212-0.775-0.303 c-2.621-1.049-5.66-2.219-8.928-3.472c-0.6-0.221-1.208-0.456-1.808-0.692c-1.74-0.653-3.518-1.337-5.319-2.021 c-0.174-0.061-0.342-0.121-0.509-0.182c-0.729-0.281-1.443-0.555-2.173-0.836c-0.266-0.091-0.539-0.213-0.813-0.312 c-2.819-1.064-5.63-2.15-8.434-3.259c-0.524-0.198-1.041-0.395-1.565-0.608c-2.964-1.186-5.934-2.386-8.882-3.648 c-0.191-0.076-0.373-0.16-0.562-0.243c-0.973-0.411-1.945-0.836-2.918-1.277c-0.251-0.114-0.517-0.236-0.767-0.349 c-1.072-0.502-2.151-1.003-3.214-1.543c-0.076-0.037-0.16-0.083-0.244-0.129c-2.173-1.109-4.908-3.009-7.476-2.446l-0.016,0.015 c-0.242,0.046-0.463,0.114-0.714,0.167c-0.486,0.129-0.957,0.258-1.383,0.486c-0.859,0.456-1.489,1.535-0.843,2.948 c0.03,0.076,0.091,0.152,0.121,0.228c0.076,0.168,0.175,0.327,0.274,0.494c0.068,0.114,0.129,0.22,0.205,0.334 c0.13,0.174,0.296,0.357,0.464,0.547c0.121,0.129,0.236,0.266,0.38,0.402c0.046,0.03,0.068,0.076,0.122,0.122 c0.084,0.076,0.198,0.129,0.289,0.212c0.228,0.175,0.456,0.35,0.706,0.502c1.611,1.048,3.586,1.748,5.258,2.507 c0.008,0,0.008,0,0.008,0c1.74,0.783,3.822,1.694,6.154,2.675c1.033,0.426,2.105,0.896,3.229,1.352 c0.874,0.357,1.74,0.73,2.614,1.079c2.561,1.056,5.25,2.157,8.023,3.282c-0.593,0.524-1.215,1.004-1.869,1.444 c-0.342,0.236-0.738,0.456-1.132,0.699c-0.198,0.106-0.388,0.228-0.585,0.334c-1.763,0.958-3.944,1.839-6.42,2.447 c-1.672,0.41-3.465,0.706-5.266,0.88c-0.068,0-0.144,0-0.205,0.016c-0.775,0.069-1.542,0.122-2.302,0.137 c-0.341,0.015-0.676,0.015-1.01,0.015c-0.532,0.016-1.064,0.016-1.581,0.016c-0.311-0.016-0.608-0.016-0.911-0.03 c-0.639-0.03-1.262-0.061-1.884-0.107c-0.107-0.016-0.228-0.016-0.35-0.03c-0.737-0.06-1.451-0.137-2.119-0.22 c-0.076-0.016-0.145-0.023-0.22-0.03c-0.646-0.099-1.261-0.19-1.839-0.296c-0.668-0.121-1.336-0.25-1.998-0.418 c-2.454-0.623-3.981,0.084-4.794,1.284c-0.084,0.106-0.145,0.236-0.198,0.357c-0.06,0.099-0.106,0.175-0.144,0.274 c-0.076,0.144-0.129,0.304-0.174,0.463c-0.016,0.046-0.038,0.106-0.054,0.144c-0.03,0.114-0.038,0.236-0.053,0.35 c-0.015,0.084-0.046,0.145-0.053,0.22c-0.008,0.024,0,0.038,0,0.068c-0.023,0.206-0.008,0.403,0.007,0.616 c0.016,0.152,0.038,0.304,0.076,0.448c0.289,1.338,1.307,2.523,2.933,2.69c0.023,0,0.061,0.008,0.076,0.008 c2.857,0.958,6.93,0.866,8.829,0.995c0.038,0,0.068,0,0.114,0c0.79,0.054,1.611,0.114,2.462,0.13c0.045,0,0.106,0.015,0.16,0.015 c0.737,0.022,1.496,0.03,2.264,0.03c0.198,0,0.388,0.016,0.577,0c0.729,0,1.467-0.015,2.219-0.045 c0.19-0.016,0.38-0.016,0.577-0.031c0.783-0.045,1.565-0.099,2.355-0.182c0.828-0.069,1.656-0.175,2.484-0.304 c0.282-0.03,0.562-0.091,0.828-0.121c0.555-0.099,1.11-0.198,1.641-0.304c0.129-0.038,0.274-0.054,0.395-0.076 c0.182-0.046,0.35-0.091,0.539-0.129c0.517-0.122,1.026-0.251,1.543-0.388c0.16-0.038,0.327-0.068,0.486-0.122 c0.676-0.183,1.064-0.046,1.482,0.174c0.244,0.152,0.486,0.282,0.767,0.418c0.107,0.06,0.183,0.106,0.304,0.175 c4.558,2.112,9.255,3.898,13.791,6.071l0.091,0.03c1.049,0.516,2.105,0.995,3.138,1.534c0.076,0.038,0.121,0.076,0.182,0.137 l0.031,0.288c-0.016,0.206-0.099,0.411-0.206,0.578c-0.516,0.639-1.603,1.353-2.188,1.702c-0.121,0.076-0.228,0.152-0.364,0.228 h-0.016c-2.515,1.382-5.623,2.021-7.674,4.148c-0.282,0.296-0.51,0.593-0.676,0.896c-0.016,0.016-0.016,0.016-0.016,0.016 c-0.426,0.752-0.539,1.489-0.357,2.173c0.296,1.11,1.512,2.02,3.198,2.294c0.092,0.016,0.183,0.053,0.282,0.061 c0.015,0,0.03,0,0.045,0c0.137,0.016,0.282,0.008,0.418,0.016c0.236,0,0.494,0.015,0.745,0c0.106-0.008,0.227-0.03,0.356-0.046 c0.304-0.046,0.608-0.076,0.912-0.16c0.054-0.008,0.114-0.038,0.167-0.038c2.128-0.532,4.194-1.794,5.934-2.872 c0.448-0.274,0.904-0.578,1.345-0.882c0.038-0.03,0.068-0.046,0.114-0.076c0.022-0.022,0.046-0.038,0.068-0.061 c1.261-0.912,2.462-1.945,3.412-3.16c0.03-0.03,0.053-0.068,0.076-0.092c0.023-0.03,0.046-0.076,0.076-0.121 c0.228-0.304,0.441-0.623,0.631-0.949c0.061-0.122,0.136-0.236,0.19-0.342c0.228-0.418,0.418-0.844,0.57-1.284 c0.395-1.193,0.577-2.515,0.288-3.64c-0.083-0.775-0.204-1.565-1.192-1.869l-1.079-0.654c-0.813-0.502-1.618-0.988-2.424-1.489 l-0.76-0.456c-0.243-0.159-0.387-0.228-0.54-0.296c-3.913-2.318-8.229-4.429-12.331-6.192c1.108-0.684,2.553-1.474,3.54-2.53 c0.03-0.038,0.062-0.068,0.092-0.099c0.045-0.061,0.106-0.107,0.152-0.175c0.129-0.16,0.243-0.303,0.334-0.463 c0.015-0.03,0.03-0.061,0.061-0.091c0.106-0.198,0.22-0.411,0.296-0.623c4.346,1.786,8.555,3.525,12.218,5.136 c1.033,0.441,2.02,0.867,2.956,1.292c1.383,0.608,2.765,1.246,4.141,1.884c0.03,0,0.053,0.016,0.076,0.038 c2.15,1.011,4.369,2.439,6.71,3.024c0.083,0.015,0.19,0.053,0.273,0.068c0.084,0.015,0.152,0.045,0.244,0.053 c0.136,0.03,0.303,0.038,0.456,0.053c1.139,0.145,2.112,0.031,2.963-0.273c1.239-0.357,2.302-1.064,2.712-2.204 c0.046-0.137,0.107-0.281,0.137-0.433c0.008-0.053,0.038-0.099,0.038-0.152c0.016-0.114,0-0.22,0-0.327 c0-0.099,0.008-0.182,0-0.274C324.655,427.016,315.81,424.858,312.969,423.734z"/> <path class="st0" d="M299.391,458.312c-0.182-0.206-0.403-0.402-0.638-0.585c-0.092-0.076-0.175-0.152-0.282-0.212 c-0.327-0.228-0.698-0.426-1.124-0.577c1.307,0.478-0.168-0.084-0.198-0.084c-1.094-0.434-3.556-1.451-6.823-2.682 c-3.465-1.307-7.818-2.865-12.37-4.521c-5.234-1.877-10.766-3.951-15.394-5.934c-0.904-0.394-1.808-0.79-2.712-1.2 c-0.03-0.015-0.061-0.03-0.106-0.045c-2.204-1.033-4.248-2.424-6.443-3.465c-0.054-0.03-0.114-0.061-0.183-0.092 c-0.076-0.03-0.16-0.083-0.235-0.114c-0.076-0.038-0.167-0.053-0.228-0.083c-1.102-0.441-1.93-0.456-2.706-0.274 c-1.223,0.121-2.409,0.555-3.054,1.398c-0.083,0.091-0.152,0.19-0.212,0.304c-0.022,0.038-0.061,0.076-0.084,0.122 c-0.6,1.322-0.037,2.446,0.912,3.358c0.38,0.441,0.828,0.836,1.398,1.124c0.38,0.221,0.882,0.502,1.489,0.813 c0.068,0.038,0.145,0.068,0.198,0.099c0.008,0.015,0.022,0.015,0.038,0.015c1.58,0.836,3.814,1.93,6.458,3.1 c0.896,0.387,1.854,0.79,2.842,1.216c0.046,0.03,0.099,0.045,0.16,0.068c0.068,0.03,0.144,0.068,0.213,0.083 c1.512,0.646,3.092,1.299,4.71,1.976c-0.198,0.593-0.432,1.17-0.676,1.747c-0.152,0.396-0.334,0.806-0.524,1.261 c-0.167,0.122-0.433,0.107-0.98-0.083c-3.343-1.178-6.694-2.332-10.03-3.548c-0.175-0.053-0.335-0.122-0.509-0.182 c-0.631-0.22-1.239-0.464-1.862-0.684c-0.121-0.03-0.236-0.083-0.349-0.129c-0.137-0.053-0.251-0.068-0.388-0.129 c-0.516-0.175-1.041-0.334-1.565-0.502c-0.327-0.083-0.646-0.166-0.965-0.242c-0.357-0.091-0.722-0.168-1.094-0.228 c-0.411-0.068-0.79-0.122-1.17-0.152c-0.167-0.03-0.326-0.06-0.502-0.076c-1.049-0.061-5.311-0.289-6.162,0.722 c-0.068,0.03-0.122,0.083-0.152,0.167c-0.554,1.405-0.448,3.29-0.927,4.817c-0.053,0.137-0.083,0.266-0.136,0.41 c-0.19,0.524-0.411,1.064-0.623,1.588c-0.593,1.398-1.352,2.941-2.348,4.62c-0.045,0.091-0.106,0.182-0.152,0.273 c-0.456,0.752-0.95,1.535-1.489,2.34c-0.145,0.205-0.266,0.411-0.349,0.631c-0.836,1.702-0.22,3.206,0.942,4.232 c1.208,1.307,3.146,1.976,4.863,1.041c0.015,0,0.03-0.015,0.045-0.038c0.145-0.076,0.258-0.182,0.387-0.289 c0.046-0.045,0.099-0.076,0.137-0.129c0.016,0,0.016-0.008,0.016-0.008c1.17-1.276,1.648-3.966,2.173-5.334 c0,0,0.007,0,0.014-0.016c0.608-1.595,1.246-3.183,1.915-4.771c0.038-0.107,0.084-0.213,0.137-0.327 c0.258-0.616,0.531-1.239,0.805-1.862c0.091-0.198,0.167-0.387,0.258-0.569c0.175-0.373,0.297-0.524,0.434-0.524 c0.174,0.068,0.349,0.121,0.531,0.167c0.115,0.06,0.244,0.091,0.395,0.137c0.608,0.166,1.208,0.356,1.808,0.532 c2.933,0.889,7.97,2.515,13.98,4.604c-1.2,2.591-2.887,5.228-3.874,7.917c-0.03,0.061-0.068,0.137-0.107,0.19l-0.099,0.304 l-1.003-0.388l-1.338-0.502c-0.174-0.107-0.334-0.167-0.478-0.198c-0.152-0.083-0.296-0.152-0.426-0.206 c-0.053-0.083-0.061-0.182-0.015-0.364c0.046-0.122,0.098-0.266,0.137-0.357l0.137-0.258c0.022-0.076,0.022,0,0.076-0.183 l0.144-0.493c0.844-2.736-0.494-4.475-2.256-5.22c-0.091-0.046-0.198-0.076-0.312-0.106c-0.205-0.084-0.433-0.137-0.653-0.183 c-0.068-0.015-0.114-0.037-0.175-0.045c-0.03-0.016-0.068,0-0.106-0.016c-0.16-0.022-0.327-0.03-0.486-0.037 c-0.57-0.038-1.048,0.007-1.451,0.152c-1.025,0.296-1.816,0.98-1.922,2.074c-0.022,0.258-0.068,0.577-0.121,0.98l-0.114,0.592 c-0.16,0.828-0.327,1.68-0.502,2.53l-0.844,4.148c-0.053,0.236-0.083,0.411-0.106,0.532l-0.068,0.365l0.768,0.289 c0.008,0,0.015,0,0.015,0c1.162,0.426,2.318,0.866,3.488,1.292c2.53,0.926,5.053,1.922,7.552,2.956 c0.061,0.022,0.114,0.045,0.174,0.068c6.178,2.53,11.838,5.235,17.4,8.905c0.136-0.244,0.242-0.35,0.357-0.623l0.258-0.577 c0.972-1.976,1.816-4.072,2.72-6.071c0.266-0.585,0.577-1.177,0.805-1.77c0.008-0.016,0.03-0.054,0.038-0.068 c0.388-0.752,0.44-1.474,0.327-2.165c-0.008-0.091-0.03-0.183-0.054-0.274c-0.03-0.122-0.061-0.228-0.099-0.334 c-0.03-0.068-0.045-0.137-0.076-0.221c-0.03-0.083-0.076-0.16-0.129-0.25c-0.038-0.069-0.076-0.152-0.122-0.212 c-0.714-1.246-2.006-2.204-3.373-2.705c-0.023,0-0.038-0.008-0.054-0.015c-0.273-0.099-0.555-0.183-0.828-0.252 c-0.22-0.038-0.433-0.068-0.661-0.083c-0.137-0.016-0.281-0.016-0.418-0.016c-0.038,0-0.076,0-0.114,0 c-0.746,0.03-1.384,0.258-1.824,0.745c-0.046,0.046-0.099,0.106-0.145,0.167c-0.06,0.091-0.129,0.183-0.182,0.289 c-0.107,0.183-0.183,0.395-0.236,0.639c-0.045,0.197-0.137,0.493-0.25,0.896l-0.099,0.319l-0.053,0.228v0.152 c-0.016,0.068-0.031,0.183-0.038,0.274c-0.114,0.334-0.266,0.577-0.441,0.516c-0.63-0.212-1.238-0.456-1.861-0.692 c-0.836-0.334-1.672-0.676-2.538-1.011c0.099-0.364,0.205-0.729,0.304-1.094c0.532-1.869,1.527-4.847,2.682-7.917 c3.077,1.125,6.261,2.31,9.437,3.556c2.591,1.018,5.22,2.097,7.643,3.206c1.034,0.501,2.09,0.987,3.1,1.52l0.03,0.016 c0.92,0.493,1.155,1.132,1.071,1.838c-0.022,0.076-0.045,0.152-0.068,0.204c-0.076,0.274-0.175,0.548-0.29,0.829 c-0.204,0.562-0.463,1.116-0.721,1.656c-0.023,0.015-0.03,0.03-0.038,0.053c-0.821,1.626-1.832,3.116-2.743,4.293 c-0.494,0.646-0.957,1.17-1.405,1.641c-0.198,0.19-0.411,0.365-0.616,0.524c-1.444,0.889-2.88,0.661-4.346,1.071 c-0.016,0-0.038,0.015-0.053,0.015c-0.274,0.084-0.548,0.167-0.821,0.304c-1.368,0.654-1.626,1.672-1.345,2.736 c0.008,0.084,0,0.168,0.016,0.243c0.038,0.183,0.099,0.365,0.168,0.547c0.083,0.198,0.129,0.35,0.334,0.639 c0.365,0.516,0.836,1.048,1.414,1.58c0.16,0.137,0.327,0.289,0.501,0.426c0.008,0.015,0.016,0.015,0.03,0.03 c0.008,0,0.008,0,0.023,0.015c1.109,0.882,2.545,1.778,4.141,1.816c1.215,0.084,3.45-0.388,5.736-2.636 c0.281-0.289,0.57-0.578,0.859-0.882l0.41-0.441l0.258-0.319c0.19-0.212,0.372-0.456,0.547-0.691 c0.152-0.175,0.288-0.357,0.433-0.548c0.03-0.03,0.068-0.083,0.106-0.129c0.046-0.061,0.092-0.121,0.145-0.19 c0.083-0.136,0.19-0.273,0.289-0.402c1.892-2.659,4.134-6.443,4.923-10.128c0.129-0.539,0.236-1.14,0.312-1.983 c0.106-1.367-0.046-2.765-0.646-4.057c-0.577-1.323-1.709-2.348-3.024-3.177c-0.768-0.471-1.33-0.79-1.808-1.033 c-6.634-3.707-14.33-5.949-21.404-8.464c0.311-0.668,0.646-1.33,0.988-1.982c0.06-0.114,0.129-0.221,0.19-0.342 c0.168-0.25,0.342-0.38,0.532-0.395c0.502,0.19,0.988,0.395,1.474,0.593c0.015,0,0.015,0,0.015,0 c1.709,0.684,3.419,1.376,5.136,2.082c0.41,0.159,0.813,0.334,1.223,0.494c1.307,0.539,2.606,1.086,3.898,1.648 c0.281,0.122,0.57,0.243,0.836,0.35c1.588,0.698,3.176,1.398,4.734,2.142c0.448,0.228,0.888,0.456,1.33,0.668 c0.402,0.198,0.752,0.38,1.041,0.532c1.663,0.896,3.085,0.926,4.338,0.531c0.023-0.015,0.046-0.022,0.069-0.03 c0.303-0.091,0.593-0.212,0.874-0.364c0.038-0.03,0.091-0.03,0.129-0.054c0.015-0.015,0.03-0.023,0.038-0.03 c0.539-0.311,1.033-0.676,1.489-1.071c0.82-0.775,1.276-1.823,0.987-2.948c-0.121-0.471-0.387-0.927-0.737-1.344 C299.406,458.343,299.399,458.32,299.391,458.312z"/> <path class="st0" d="M220.835,118.894C220.524,119.433,220.182,120.041,220.835,118.894L220.835,118.894z"/> <path class="st0" d="M231.503,110.057h0.008C233.099,110.126,232.3,110.088,231.503,110.057z"/> <path class="st0" d="M235.234,110.544c-0.182-0.046-0.372-0.076-0.555-0.114c-0.372-0.068-0.752-0.137-1.132-0.182 c-0.668-0.091-1.338-0.16-2.036-0.19c-0.008,0-0.008,0-0.016,0c-1.595-0.076-0.805-0.038-0.007,0c-0.707-0.038-1.398-0.038-2.098,0 c-0.41,0-0.797,0.045-1.207,0.076c-0.259,0.023-0.51,0.038-0.76,0.076c-0.539,0.053-1.071,0.129-1.61,0.228 c-0.038,0.015-0.084,0.023-0.137,0.03c-1.292,0.244-2.583,0.578-3.838,1.072c-0.38,0.144-0.737,0.357-1.109,0.524 c-0.182,0.091-0.38,0.174-0.57,0.258c-0.372,0.198-0.752,0.396-1.11,0.623c-0.41,0.228-0.797,0.494-1.193,0.76 c-0.198,0.137-0.403,0.258-0.593,0.395c-0.053,0.046-0.121,0.083-0.182,0.129c-0.539,0.403-1.056,0.843-1.565,1.299 c-0.16,0.144-0.304,0.304-0.463,0.448c-0.395,0.387-0.79,0.767-1.148,1.186c-0.084,0.076-0.167,0.144-0.244,0.227 c-0.121,0.13-0.22,0.274-0.342,0.411c-0.288,0.334-0.569,0.676-0.843,1.018c-0.212,0.282-0.433,0.54-0.638,0.813 c-0.175,0.243-0.35,0.486-0.51,0.714c-1.116,1.551-2.074,3.108-2.91,4.514c-0.266,0.456-0.509,0.882-0.752,1.315 c-0.037,0.061-0.075,0.129-0.121,0.197c-1.071,1.87-2.135,3.738-3.305,5.547c-0.03,0.054-0.061,0.099-0.091,0.152 c-1.178,1.816-2.447,3.548-3.921,5.144c-0.782,0.821-1.376,1.466-1.505,2.112c-0.06,0.243-0.014,0.486,0.107,0.729 c0.03,0.092,0.083,0.183,0.152,0.258c0.03,0.046,0.076,0.076,0.114,0.114c0.106,0.099,0.258,0.182,0.44,0.273 c0.068,0.03,0.152,0.068,0.25,0.099c0.062,0.016,0.084,0.046,0.16,0.068c0.167,0.038,0.327,0.038,0.486,0.061 c0.068,0.008,0.129,0.023,0.205,0.038c0.03,0,0.069,0,0.091,0c0.167,0,0.327-0.015,0.494-0.03c0.016,0,0.038,0,0.061-0.008 c1.193-0.129,2.318-0.76,3.29-1.572c0.114-0.099,0.228-0.198,0.357-0.296c0.099-0.107,0.198-0.206,0.304-0.304 c0.122-0.129,0.236-0.243,0.35-0.364c0.22-0.228,0.425-0.472,0.608-0.7c0.114,0.296,0.243,0.601,0.44,0.92 c0.024,0.03,0.068,0.068,0.099,0.122c0.213,0.342,0.464,0.646,0.737,0.934c0.024,0.016,0.03,0.03,0.046,0.054 c0.722,0.737,1.61,1.306,2.591,1.74c0.251,0.099,0.517,0.19,0.775,0.281c0.266,0.092,0.547,0.19,0.836,0.274 c0.122,0.038,0.236,0.091,0.365,0.114c0.106,0.038,0.228,0.054,0.342,0.076c0.775,0.19,1.542,0.341,2.294,0.456 c0.083,0.015,0.16,0.03,0.243,0.046c0.159,0.015,0.334,0.053,0.502,0.068c0.311,0.054,0.638,0.076,0.95,0.114 c0.592,0.076,1.185,0.152,1.778,0.206c0.775,0.076,1.55,0.136,2.325,0.19c0.038,0,0.076,0,0.129,0.008 c2.948,0.182,5.911,0.227,8.859,0.25c1.945,0.03,3.959,0.015,5.85-0.099c0.288-0.016,0.54-0.03,0.813-0.054 c0.213-0.022,0.411-0.037,0.616-0.053c0.859-0.053,1.694-0.137,2.508-0.22c0.296-0.038,0.6-0.068,0.896-0.106 c1.087-0.129,2.143-0.281,3.131-0.448c2.857-0.502,6.724-1.154,9.36-2.978c0.228-0.145,0.433-0.274,0.623-0.441 c0.083-0.061,0.16-0.136,0.235-0.205c0.342-0.296,0.646-0.608,0.89-0.934l0.068,0.076c0.015,0.016,0.022,0.03,0.045,0.046 c0.532,0.593,1.649,1.664,2.553,1.474c0.061-0.015,0.114-0.03,0.174-0.045c0.016-0.008,0.046-0.008,0.068-0.016 c0,0,0-0.007,0.008-0.015c0.076-0.046,0.137-0.091,0.175-0.16c0.015-0.008,0.015-0.023,0.023-0.038 c0.638-0.813-0.434-3.062-0.692-3.738l-0.015-0.03c-0.228-0.616-0.502-1.307-0.829-2.066c-1.078-2.606-2.34-5.152-3.639-7.636 c0,0,0-0.015-0.008-0.015c0-0.023-0.015-0.023-0.015-0.023c-0.114-0.221-0.205-0.426-0.311-0.631 c-0.068-0.114-0.137-0.228-0.198-0.357c-0.988-1.854-2.188-3.92-3.776-5.98c-1.846-2.416-4.285-4.733-7.18-6.298 C239.101,111.577,237.186,110.954,235.234,110.544z M222.028,117.237c-0.402,0.418-0.744,0.874-1.033,1.375 c-0.083,0.152-0.099,0.168-0.16,0.281c0.054-0.091,0.114-0.19,0.152-0.266c-2.978,5.19-3.396,12.643-0.478,18.061 c0.008,0.022,0.023,0.038,0.03,0.068c0.19,0.342,0.388,0.676,0.601,1.003c0.22,0.35,0.463,0.692,0.722,1.011 c-1.428-0.076-2.788-0.175-4.043-0.342c-2.887-0.32-5.182-0.942-6.489-1.52c0.98,0.137,1.596,0.221,1.398,0.168 c0.008,0,0.015,0,0.023,0c-4.567-1.11-3.602-3.921-2.067-6.838l0.889-1.641c0.008-0.023,0.015-0.038,0.03-0.054 c2.796-5.166,6.108-10.12,11.723-12.446C222.857,116.432,222.416,116.819,222.028,117.237z M241.517,118.248 c0.334,0.258,0.661,0.517,0.98,0.805c0.342,0.281,0.668,0.585,0.98,0.912c0.152,0.152,0.296,0.304,0.44,0.456 c0.426,0.456,0.836,0.926,1.223,1.421c0.388,0.494,0.744,1.003,1.102,1.527c0.114,0.16,0.221,0.349,0.335,0.516 c0.228,0.357,0.456,0.714,0.668,1.087c0.129,0.204,0.244,0.418,0.365,0.63c0.19,0.35,0.38,0.684,0.562,1.026 c0.114,0.221,0.236,0.449,0.342,0.677c0.106,0.198,0.213,0.402,0.312,0.608c0.152,0.342,0.235,0.745,0.25,1.155 c-0.16,0.805-0.266,2.257-0.494,3.746c-0.061,0.395-0.129,0.775-0.212,1.162c-0.023,0.137-0.054,0.258-0.084,0.38 c-0.068,0.274-0.136,0.555-0.22,0.836c-0.03,0.076-0.053,0.152-0.076,0.228c-0.122,0.327-0.335,0.517-0.593,0.676 c-0.631,0.244-1.352,0.479-2.143,0.722c-0.319,0.091-0.646,0.19-0.973,0.282c-0.098,0.022-0.22,0.053-0.326,0.076 c-1.657,0.426-3.328,0.737-5.015,1.003c0.35-0.524,0.661-1.102,0.949-1.71c0.092-0.19,0.168-0.365,0.252-0.554 c0.258-0.623,0.501-1.284,0.698-1.968c0.023-0.06,0.046-0.121,0.053-0.183c1.573-5.523,0.95-12.582-2.789-16.578 c-0.212-0.244-0.448-0.471-0.691-0.684c-0.084-0.076-0.16-0.137-0.236-0.213c-0.357-0.289-0.722-0.562-1.117-0.79 c1.133,0.311,2.204,0.76,3.214,1.307c0.236,0.129,0.494,0.258,0.738,0.402c0.303,0.19,0.608,0.387,0.904,0.593 C241.122,117.944,241.312,118.096,241.517,118.248z"/> <path class="st0" d="M240.986,66.346c-1.482-3.769-3.146-7.484-4.977-11.101c-0.615-1.215-1.261-2.476-1.96-3.73 c-4.324-7.895-10.722-18.836-20.288-20.964c-0.501-0.106-0.957-0.152-1.413-0.182c-0.03,0-0.053-0.008-0.083-0.008 c-9.011-0.372-11.542,15.264-12.56,21.594c-0.167,1.049-0.319,2.12-0.464,3.198c-0.866,6.444-1.261,12.955-1.428,19.459 c0,0.129-0.015,0.266-0.015,0.395c-0.008,0.501-0.023,1.01-0.038,1.527c-0.053,3.184-0.053,5.828-0.053,7.537L242.3,69.796 C242.3,69.796,241.844,68.48,240.986,66.346z"/> <path class="st0" d="M264.972,193.719c0.174,0.053,0.357,0.083,0.532,0.122c3.169,0.692,6.147,0.296,8.715-0.57 c0.289-0.091,0.562-0.19,0.836-0.296c0.076-0.023,0.144-0.046,0.22-0.076c2.5-0.957,4.84-2.401,6.823-4.179 c0.411-0.357,0.646-0.585,0.646-0.585s0.236,0.228,0.638,0.585c1.99,1.778,4.331,3.222,6.823,4.179 c0.076,0.03,0.145,0.054,0.221,0.076c0.281,0.106,0.562,0.205,0.836,0.296c2.575,0.866,5.554,1.261,8.715,0.57 c0.182-0.038,0.365-0.069,0.532-0.122c0.265-0.061,0.539-0.145,0.797-0.22c0.563-0.183,1.117-0.373,1.649-0.608 c-5.341-1.186-10.394-5.342-14.11-9.954c0,0-0.007-0.008-0.015-0.008c-3.716-4.612-6.086-9.657-6.086-12.636 c0,2.978-2.378,8.023-6.094,12.636c0,0-0.007,0-0.015,0.008c-3.715,4.612-8.768,8.768-14.11,9.954 c0.532,0.235,1.087,0.425,1.649,0.608C264.44,193.574,264.706,193.658,264.972,193.719z"/> <path class="st0" d="M363.8,169.276c-0.303-0.38-0.888-0.524-1.854-0.228c-0.273,0.076-0.577,0.212-0.888,0.365 c-1.162,0.57-2.189,1.429-3.267,2.12c-0.152,0.099-0.32,0.19-0.486,0.289c-0.258,0.152-0.524,0.296-0.783,0.441 c-0.274,0.152-0.57,0.304-0.882,0.464c-0.182,0.091-0.357,0.182-0.539,0.265c-0.433,0.205-0.897,0.418-1.406,0.631 c-0.091,0.045-0.182,0.091-0.266,0.129c-0.646,0.266-1.33,0.539-2.059,0.813c-1.056,0.38-2.128,0.722-3.199,1.048 c-0.456,0.137-0.904,0.274-1.39,0.411c-0.623,0.174-1.261,0.349-1.891,0.501c-0.419,0.099-0.836,0.221-1.269,0.32 c-0.54,0.136-1.109,0.235-1.664,0.356c-0.608,0.13-1.216,0.259-1.824,0.373c-0.517,0.091-1.056,0.175-1.588,0.266 c-0.813,0.129-1.618,0.25-2.431,0.365c-0.388,0.045-0.79,0.114-1.193,0.152c-0.661,0.084-1.33,0.144-2.006,0.206 c-2.348,0.212-4.681,0.334-6.922,0.326c-0.38-0.007-0.759-0.007-1.154-0.023c-0.616-0.014-1.231-0.038-1.831-0.068 c-1.079-0.075-2.15-0.159-3.214-0.311c-0.236-0.038-1.285-0.213-2.538-0.334c-3.176-0.357-4.612-0.258-5.137,0.516 c-0.022,0.038-0.022,0.107-0.037,0.153c-0.152,0.303-0.099,0.683,0.289,1.215c2.347,3.184,9.308,2.728,12.756,2.742 c1.124,0.008,2.318-0.015,3.549-0.053c0.57-0.015,1.147-0.045,1.717-0.083c0.577-0.03,1.162-0.076,1.755-0.114 c0.683-0.053,1.382-0.099,2.081-0.167c1.071-0.099,2.158-0.228,3.252-0.372c0.03,0,0.046-0.008,0.076-0.008 c0.501-0.061,1.003-0.144,1.497-0.212c0.828-0.137,1.656-0.258,2.492-0.403c0.198-0.038,0.402-0.068,0.608-0.099 c0.281-0.045,0.539-0.106,0.813-0.16c0.699-0.129,1.375-0.274,2.067-0.418c0.585-0.122,1.17-0.244,1.74-0.38 c0.562-0.129,1.094-0.274,1.634-0.411c0.752-0.19,1.512-0.396,2.264-0.608c1.018-0.296,1.999-0.6,2.91-0.92 c0.206-0.068,0.395-0.136,0.601-0.204c1.314-0.472,2.492-0.95,3.541-1.414c0.015,0,0.03-0.007,0.037-0.015 c0.046-0.016,0.084-0.038,0.137-0.061c0.464-0.213,0.889-0.411,1.284-0.608c0.023-0.015,0.045-0.023,0.068-0.038 c0.061-0.03,0.129-0.061,0.19-0.099c0.265-0.122,0.478-0.274,0.721-0.418c0.183-0.114,0.373-0.221,0.555-0.327 c0.312-0.213,0.578-0.419,0.859-0.646c0.152-0.114,0.311-0.228,0.456-0.357c0.402-0.365,0.759-0.73,1.056-1.095 c0.114-0.152,0.228-0.334,0.326-0.517c0.099-0.159,0.228-0.319,0.304-0.47c0.684-1.277,0.57-2.294,0.152-2.766 C363.846,169.306,363.822,169.306,363.8,169.276z"/> <path class="st0" d="M248.698,190.862c0.007-0.008,0.023-0.008,0.03-0.008c0.008-0.015,0.022-0.015,0.038-0.022 C248.743,190.847,248.712,190.854,248.698,190.862z"/> <path class="st0" d="M253.484,190.824c-0.008-0.03-0.046-0.045-0.061-0.091c-0.008-0.022-0.015-0.068-0.03-0.107 c-0.023-0.037-0.069-0.068-0.091-0.106c-0.403-0.639-1.269-0.722-2.166-0.547c-0.166,0.022-0.334,0.06-0.517,0.114 c-0.015,0-0.015,0-0.022,0.008c-0.38,0.099-0.79,0.25-1.223,0.44c-0.198,0.091-0.38,0.183-0.516,0.258 c-0.046,0.016-0.091,0.038-0.129,0.06c-0.737,0.373-1.497,0.707-2.264,1.026c-0.95,0.372-2.052,0.767-3.313,1.116 c-2.606,0.752-5.805,1.315-9.095,1.505c-2.781,0.167-5.607,0.053-8.198-0.25c-0.63-0.084-1.254-0.153-1.877-0.258 c-0.198-0.031-0.41-0.068-0.6-0.107c-2.964-0.585-6.854-2.584-9.916-2.211c-0.266,0.023-0.51,0.061-0.73,0.114 c-0.038,0.008-0.083,0.008-0.122,0.024c-0.054,0.015-0.091,0.038-0.137,0.053c-0.053,0.022-0.107,0.038-0.16,0.061 c-0.972,0.372-1.261,0.889-1.148,1.459c0.024,0.98,1.003,2.242,3.336,2.956c0.054,0.016,0.16,0.038,0.228,0.068 c0.023,0,0.038,0.008,0.068,0.016c0.03,0.015,0.068,0.015,0.106,0.038c0.563,0.167,1.33,0.38,2.28,0.608 c0.79,0.204,1.58,0.372,2.37,0.531c0.083,0.016,0.174,0.03,0.251,0.046c2.044,0.395,4.095,0.668,6.169,0.813 c0.092,0.007,0.167,0.015,0.259,0.015c3.897,0.266,7.818,0.099,11.663-0.456c0.365-0.053,0.729-0.091,1.086-0.144 c0.175-0.023,0.335-0.076,0.502-0.107c0.152-0.015,0.296-0.03,0.44-0.053c3.723-0.684,8.571-1.543,11.716-3.974 c0.22-0.16,0.432-0.319,0.608-0.471c0.023-0.016,0.053-0.038,0.076-0.061c0.539-0.502,1.269-1.33,1.185-2.158 c0-0.03-0.015-0.053-0.015-0.053C253.492,190.93,253.492,190.87,253.484,190.824z"/> <path class="st0" d="M292.044,423.248C291.809,423.901,296.39,425.033,292.044,423.248L292.044,423.248z"/> <path class="st0" d="M306.252,138.078c-0.303,0.334-0.456,0.502-0.555,0.608C305.888,138.481,306.252,138.078,306.252,138.078z"/> <path class="st0" d="M303.51,139.56c0.501,0.166,1.443-0.137,2.591-1.33c0.061-0.054,0.114-0.106,0.152-0.152 c0.114,0.084,0.236,0.183,0.365,0.258c0.631,0.722,1.451,1.375,2.469,1.809c0.236,0.114,0.547,0.243,0.866,0.364 c0.016,0.016,0.03,0.016,0.038,0.03c0.008,0,0.022,0.008,0.046,0.008c0.699,0.281,1.618,0.601,2.666,0.912 c0.122,0.03,0.244,0.076,0.365,0.114c0.668,0.191,1.39,0.38,2.173,0.548c0.137,0.023,0.296,0.061,0.433,0.091 c0.106,0.022,0.19,0.045,0.289,0.061c0.167,0.046,0.334,0.068,0.494,0.091c0.767,0.152,1.572,0.289,2.4,0.41 c0.342,0.054,0.669,0.107,0.996,0.153c0.942,0.137,1.938,0.243,2.956,0.334c0.394,0.031,0.798,0.054,1.208,0.084 c0.456,0.038,0.912,0.076,1.376,0.099c0.296,0.015,0.615,0.023,0.92,0.03c0.311,0.015,0.638,0.03,0.957,0.03 c0.89,0.03,1.786,0.046,2.682,0.038c0.152,0,0.304,0.008,0.456,0.008c0.251,0,0.502-0.008,0.752-0.008c0.038,0,0.06,0,0.091,0 c0.024,0,0.046,0,0.068,0c3.571-0.023,7.157-0.091,10.721-0.403c0.578-0.061,1.14-0.114,1.71-0.174 c0.228-0.023,0.44-0.038,0.668-0.068c1.854-0.236,4.072-0.555,5.995-1.338c0.091-0.038,0.175-0.083,0.258-0.121 c0.486-0.213,0.934-0.456,1.352-0.73c0.426-0.281,0.813-0.593,1.17-0.957c0.054-0.054,0.084-0.091,0.129-0.152 c0.243-0.251,0.471-0.524,0.661-0.836c0.038-0.045,0.099-0.107,0.129-0.152c0.198-0.319,0.334-0.623,0.44-0.92 c0.191,0.228,0.387,0.464,0.6,0.692c0.045,0.046,0.091,0.099,0.129,0.144c0.167,0.175,0.335,0.342,0.524,0.51 c0.045,0.038,0.083,0.076,0.122,0.122c0.175,0.152,0.357,0.304,0.554,0.44c0.023,0.03,0.076,0.068,0.107,0.092 c0.197,0.152,0.418,0.296,0.622,0.425c0.008,0,0.016,0.008,0.023,0.016c0.699,0.41,1.444,0.699,2.256,0.805 c0.008,0,0.016,0,0.023,0c0.213,0.03,0.403,0.03,0.585,0.03c0.046,0,0.076-0.022,0.107-0.022c0.212-0.016,0.418-0.061,0.608-0.114 c0.988-0.266,1.36-0.896,1.216-1.504c-0.054-0.281-0.228-0.57-0.433-0.859c-0.03-0.053-0.045-0.091-0.068-0.129 c-2.363-3.1-4.779-5.858-6.762-9.254c-0.714-1.216-1.505-2.629-2.439-4.225c-1.368-2.317-3.031-4.992-5.242-7.469 c-2.196-2.476-5.038-4.627-8.168-5.85c-0.19-0.076-0.395-0.114-0.585-0.19c-0.486-0.175-0.98-0.349-1.504-0.486 c-0.243-0.076-0.471-0.129-0.714-0.183c-0.228-0.06-0.448-0.129-0.676-0.182c-0.342-0.061-0.684-0.106-1.026-0.167 c-0.152-0.022-0.296-0.053-0.448-0.068c-1.566-0.235-3.115-0.289-4.612-0.205c-0.03,0-0.061,0-0.099,0 c-0.129,0-0.274,0.03-0.41,0.03c-0.357,0.03-0.722,0.053-1.079,0.099c-2.728,0.296-5.448,1.026-7.887,2.363 c-2.895,1.566-5.333,3.882-7.195,6.298c-0.335,0.441-0.631,0.882-0.942,1.323l-0.008,0.015c-0.266,0.387-0.517,0.744-0.752,1.117 c-0.099,0.152-0.213,0.303-0.304,0.456c-0.076,0.114-0.145,0.243-0.22,0.364c-0.258,0.426-0.494,0.836-0.722,1.246 c-1.702,2.918-3.192,5.995-4.544,9.08c-0.045,0.083-0.083,0.182-0.129,0.281c-0.053,0.137-0.114,0.252-0.174,0.38 c-0.639,1.489-1.482,3.237-1.733,4.893c-0.038,0.136-0.061,0.273-0.076,0.394c-0.007,0.054-0.022,0.107-0.022,0.167 C303.016,139.203,303.205,139.492,303.51,139.56z M338.286,116.44c0.623,0.288,1.216,0.615,1.786,0.972 c0.175,0.114,0.327,0.243,0.486,0.357c0.41,0.273,0.806,0.555,1.186,0.858c0.099,0.076,0.174,0.168,0.265,0.244 c0.449,0.38,0.882,0.76,1.277,1.17c0.008,0.007,0.008,0.015,0.016,0.015c1.435,1.466,2.658,3.138,3.768,4.901l0.016,0.016 c0.729,1.177,1.413,2.378,2.058,3.57c0.008,0.016,0.016,0.03,0.03,0.054l0.882,1.641c1.543,2.918,2.516,5.729-2.052,6.838 c0.008,0,0.016,0,0.03,0c-0.212,0.054,0.418-0.03,1.391-0.168c-1.315,0.578-3.602,1.201-6.497,1.52 c-1.254,0.166-2.614,0.265-4.042,0.342c1.344-1.679,2.333-3.83,2.857-6.344c1.192-5.213,0.448-11.36-2.873-15.014 c-0.076-0.076-0.144-0.167-0.228-0.244c-0.372-0.395-0.775-0.752-1.215-1.071C337.708,116.212,338.004,116.31,338.286,116.44z M315.606,121.842c0.388-0.494,0.798-0.965,1.223-1.421c0.145-0.152,0.296-0.304,0.44-0.456c0.32-0.327,0.639-0.631,0.98-0.912 c0.312-0.288,0.646-0.547,0.988-0.805c0.19-0.152,0.388-0.304,0.6-0.448c0.296-0.206,0.593-0.403,0.904-0.593 c0.236-0.144,0.486-0.266,0.73-0.402c1.011-0.54,2.089-0.996,3.214-1.307c-0.387,0.228-0.76,0.501-1.109,0.79 c-0.083,0.076-0.16,0.137-0.244,0.213c-0.235,0.212-0.471,0.44-0.691,0.684c-3.731,3.997-4.354,11.055-2.789,16.578 c0.015,0.062,0.03,0.122,0.045,0.183c0.213,0.684,0.441,1.345,0.707,1.968c0.084,0.19,0.167,0.365,0.258,0.554 c0.289,0.608,0.6,1.185,0.949,1.71c-2.059-0.319-4.08-0.714-6.07-1.3c-0.191-0.045-0.357-0.091-0.524-0.152 c-0.775-0.228-1.535-0.486-2.28-0.79c-0.182-0.432-0.304-0.881-0.418-1.337c-0.046-0.167-0.076-0.327-0.122-0.494 c-0.091-0.426-0.175-0.866-0.228-1.292c-0.016-0.038-0.016-0.068-0.016-0.068c-0.198-1.345-0.129-2.872-0.593-4.11 C312.696,126.256,313.994,123.908,315.606,121.842z"/> <path class="st0" d="M265.011,158.768c0.015,0.084,0.037,0.159,0.06,0.244c0.03,0.113,0.084,0.25,0.144,0.357 c0.76,1.922,3.016,3.746,4.369,4.817c0.054,0.046,0.106,0.076,0.152,0.114c0.319,0.244,0.646,0.48,0.988,0.714 c0.038,0.023,0.076,0.046,0.106,0.068c2.492,1.642,5.676,2.834,9.832,2.834c3.905,0,6.96-1.064,9.383-2.56 c0.008-0.008,0.023-0.016,0.038-0.023c0.395-0.243,0.775-0.494,1.14-0.76c0.008-0.008,0.015-0.016,0.022-0.022 c1.55-1.14,4.255-3.244,4.954-5.357c0.099-0.258,0.152-0.524,0.175-0.798v-0.03c0.015-0.183-0.016-0.35-0.031-0.524 c-0.008-0.084,0-0.183-0.015-0.282c-0.265-1.732-1.641-3.221-3.054-4.338c-0.016-0.015-0.03-0.03-0.061-0.053 c-0.35-0.274-0.692-0.524-1.026-0.745c-0.03-0.015-0.045-0.03-0.068-0.046c-0.008,0-0.008,0-0.023-0.015 c-0.373-0.236-0.744-0.456-1.132-0.669c-0.038-0.022-0.068-0.038-0.099-0.061c-1.436-0.775-2.97-1.352-4.566-1.755 c-0.046-0.015-0.106-0.022-0.175-0.03c-0.479-0.121-0.957-0.228-1.451-0.303c-0.137-0.038-0.281-0.054-0.426-0.076 c-0.433-0.068-0.874-0.114-1.307-0.167c-0.166-0.015-0.334-0.03-0.501-0.038c-0.593-0.045-1.186-0.083-1.778-0.083 c-0.395,0-0.828,0.023-1.292,0.061c-1.93,0.114-3.724,0.434-5.349,0.934c-4.232,1.156-8.457,3.465-9.011,7.294 c-0.024,0.091-0.031,0.19-0.038,0.289c-0.008,0.091-0.038,0.183-0.038,0.266c0,0.053,0.015,0.107,0.015,0.107 C264.949,158.38,264.972,158.578,265.011,158.768z"/> <path class="st0" d="M319.131,69.636l42.701,12.643c0,0,0.228-1.832,0.486-4.826c0.531-5.683,0.752-11.412,0.623-17.118 c-0.024-1.792-0.092-3.616-0.19-5.47c-0.016-0.068-0.016-0.137-0.016-0.22c-0.562-9.148-2.188-26.418-13.251-29.124 c0,0,0,0-0.023,0c-0.608-0.152-1.238-0.273-1.907-0.319c-0.592-0.06-1.17-0.06-1.748-0.03c-0.182,0.008-0.365,0.016-0.562,0.03 c-0.395,0.03-0.798,0.076-1.186,0.145c-0.198,0.015-0.395,0.045-0.593,0.076c-0.493,0.099-0.972,0.221-1.451,0.365 c-0.281,0.076-0.562,0.182-0.836,0.281c-0.22,0.076-0.456,0.168-0.676,0.252c-0.312,0.121-0.623,0.25-0.927,0.395 c-0.106,0.053-0.235,0.121-0.35,0.174c-0.623,0.312-1.238,0.654-1.838,1.034c-0.129,0.076-0.25,0.144-0.373,0.228 c-0.327,0.213-0.646,0.426-0.965,0.662c-0.099,0.068-0.182,0.144-0.281,0.212c-0.54,0.403-1.071,0.828-1.596,1.277 c-0.175,0.152-0.35,0.311-0.524,0.464c-0.251,0.212-0.478,0.44-0.714,0.668c-0.38,0.365-0.744,0.729-1.11,1.102 c-0.144,0.16-0.296,0.327-0.44,0.478c-0.327,0.357-0.654,0.722-0.965,1.087c-0.099,0.121-0.213,0.242-0.319,0.372 c-0.32,0.38-0.639,0.768-0.95,1.162c-0.053,0.068-0.106,0.137-0.152,0.213c-0.434,0.555-0.867,1.124-1.284,1.71 c-3.837,5.318-6.816,11.26-9.338,17.308c-0.228,0.532-0.448,1.064-0.654,1.58c-0.053,0.114-0.099,0.228-0.136,0.334 c-0.016,0.03-0.038,0.114-0.092,0.22c-1.413,3.548-2.454,6.588-3.084,8.571c-0.471,1.352-0.775,2.332-0.744,2.424l-0.008,0.016 l0.008,0.007C315.492,68.557,317.307,69.088,319.131,69.636z"/> <path class="st0" d="M112.731,57.084c-7.704,0-7.704,20.074,0,20.074C120.45,77.158,120.45,57.084,112.731,57.084z"/> <path class="st0" d="M131.475,57.084c-7.712,0-7.712,20.074,0,20.074C139.18,77.158,139.18,57.084,131.475,57.084z"/> <path class="st0" d="M151.093,57.084c-7.704,0-7.704,20.074,0,20.074C158.806,77.158,158.806,57.084,151.093,57.084z"/> <path class="st0" d="M174.29,462.939c-7.72,0-7.72,20.074,0,20.074C182.002,483.014,182.002,462.939,174.29,462.939z"/> <path class="st0" d="M193.908,464.733c-7.712,0-7.712,20.074,0,20.074C201.62,484.807,201.62,464.733,193.908,464.733z"/> <path class="st0" d="M213.533,466.51c-7.712,0-7.712,20.074,0,20.074C221.253,486.585,221.253,466.51,213.533,466.51z"/> <path class="st0" d="M383.015,462.939c-7.712,0-7.712,20.074,0,20.074C390.72,483.014,390.72,462.939,383.015,462.939z"/> <path class="st0" d="M363.39,464.733c-7.712,0-7.712,20.074,0,20.074C371.102,484.807,371.102,464.733,363.39,464.733z"/> <path class="st0" d="M343.764,466.51c-7.712,0-7.712,20.074,0,20.074C351.484,486.585,351.484,466.51,343.764,466.51z"/> <path class="st0" d="M168.933,57.084c-7.704,0-7.704,20.074,0,20.074C176.645,77.158,176.645,57.084,168.933,57.084z"/> <path class="st0" d="M326.318,334.373c0.639,0.418,1.285,0.836-0.007-0.008c-6.459-4.24-17.453,12.53-11.04,16.761 C321.737,355.382,332.732,338.613,326.318,334.373z"/> <path class="st0" d="M326.312,334.366C325.673,333.941,325.042,333.522,326.312,334.366L326.312,334.366z"/> <path class="st0" d="M338.179,349.532c0.008,0,0.016,0.015,0.016,0.015C339.441,350.367,338.81,349.957,338.179,349.532z"/> <path class="st0" d="M338.194,349.546c-0.008-0.008-0.008-0.008-0.022-0.015c-6.458-4.24-17.453,12.537-11.04,16.762 C333.59,370.547,344.562,353.816,338.194,349.546z"/> <path class="st0" d="M338.172,349.532C337.526,349.098,336.895,348.681,338.172,349.532L338.172,349.532z"/> <path class="st0" d="M353.071,359.34c-6.458-4.247-17.46,12.53-11.032,16.769C348.497,380.365,359.5,363.573,353.071,359.34z"/> <path class="st0" d="M360.107,154.437c-0.737,0.798-2.355,2.287-4.893,3.86c-2.522,1.595-5.918,3.251-9.786,4.611 c-3.792,1.36-8.069,2.417-12.294,3.024c-0.099,0.008-0.198,0.022-0.288,0.038c-0.236,0.038-0.478,0.053-0.714,0.076 c-4.939,0.608-9.627,0.334-14.542-0.403c-0.889-0.144-3.799-0.851-4.559,0.152c-0.008,0.008-0.03,0.023-0.038,0.03 c-0.076,0.106-0.136,0.236-0.152,0.38c-0.205,1.52,1.543,2.507,3.176,3.069c0.296,0.114,0.616,0.198,0.95,0.289 c0.152,0.046,0.296,0.083,0.433,0.106c0.084,0.015,0.16,0.045,0.236,0.061c0.068,0.008,0.137,0.03,0.198,0.03 c0.099,0.03,0.206,0.046,0.289,0.061c0.03,0,0.046,0,0.068,0.008c0.882,0.152,1.991,0.296,3.29,0.402 c9.048,0.836,18.614-1.01,27.086-4.118c0.539-0.197,1.072-0.394,1.58-0.585c0.236-0.098,0.486-0.174,0.73-0.266 c4.058-1.642,8.7-3.738,11.891-6.899c0.121-0.114,0.236-0.228,0.349-0.342c0.084-0.083,0.168-0.167,0.244-0.25 c0.205-0.213,0.426-0.486,0.638-0.775c0.023-0.03,0.053-0.046,0.068-0.076c0.965-1.284,1.877-3.039,1.33-4.468 c-0.03-0.076-0.053-0.167-0.084-0.244c-0.016-0.015-0.016-0.03-0.023-0.053C364.096,150.023,360.92,153.578,360.107,154.437z"/> <path class="st0" d="M361.946,169.048C362.744,168.798,361.126,169.291,361.946,169.048L361.946,169.048z"/> <path class="st0" d="M352.319,191.66c-0.045-0.03-0.083-0.068-0.129-0.098c-0.114-0.076-0.228-0.137-0.357-0.19 c-0.007,0-0.015,0-0.015,0c-0.334-0.114-0.714-0.166-1.11-0.136c-0.19,0-0.395,0.037-0.6,0.075c-0.016,0-0.031,0-0.046,0.008 c-0.168,0.03-0.342,0.091-0.524,0.137c-0.076,0.022-0.137,0.038-0.206,0.053c-0.121,0.046-0.25,0.091-0.388,0.152 c-0.121,0.031-0.235,0.076-0.341,0.122c0.509-0.236,0.912-0.441-0.35,0.144c-0.365,0.19-0.768,0.319-1.148,0.479 c-2.181,0.828-6.374,2.013-11.457,2.21c-2.85,0.137-5.92-0.022-8.898-0.486c-0.357-0.053-0.737-0.114-1.094-0.182 c-0.342-0.061-0.662-0.129-0.98-0.205c-0.752-0.16-1.489-0.334-2.234-0.539c-0.236-0.069-0.494-0.129-0.73-0.206 c-0.926-0.273-1.831-0.577-2.735-0.934c-0.486-0.19-0.965-0.388-1.421-0.6c-0.79-0.35-1.573-0.699-2.37-0.988 c-0.084-0.038-0.175-0.076-0.258-0.099c-0.206-0.068-0.418-0.129-0.623-0.19c-0.418-0.122-0.798-0.22-1.124-0.266 c-0.023,0-0.023,0-0.03,0c-1.056-0.152-1.642,0.023-1.892,0.388c-0.038,0.038-0.084,0.061-0.114,0.091 c-0.676,0.836,0.175,2.766,2.713,3.883c1.261,0.539,3.487,1.519,6.328,2.332c2.85,0.85,6.299,1.534,9.848,1.861 c1.14,0.099,2.287,0.152,3.434,0.183c0.167,0.007,0.334,0.007,0.509,0.007c0.821,0.016,1.626,0.008,2.424-0.015 c0.357-0.008,0.699-0.016,1.041-0.03c1.026-0.046,2.044-0.114,3.002-0.22c3.221-0.335,7.757-0.722,10.569-2.774 c0.228-0.168,0.448-0.327,0.63-0.501c0.038-0.046,0.091-0.068,0.137-0.106c0.091-0.099,0.198-0.213,0.304-0.335 c0.022-0.03,0.038-0.053,0.061-0.076c0.524-0.623,0.965-1.482,0.676-2.257c-0.076-0.182-0.167-0.335-0.289-0.471 C352.464,191.788,352.395,191.728,352.319,191.66z"/> <path class="st0" d="M201.066,157.856C199.394,156.443,202.076,158.73,201.066,157.856L201.066,157.856z"/> <path class="st0" d="M201.066,157.856c0.547,0.472,1.413,1.162,2.514,1.961c6.785,4.908,15.272,7.726,23.456,9.314 c0.426,0.092,0.858,0.175,1.299,0.252c0.41,0.075,0.813,0.159,1.223,0.228c5.189,0.866,10.911,1.519,16.131,0.539 c0.076-0.015,0.16-0.038,0.235-0.053c0.137-0.03,0.258-0.061,0.38-0.092c0.471-0.106,0.934-0.228,1.397-0.38 c0.076-0.03,0.137-0.053,0.206-0.075c0.41-0.145,0.798-0.312,1.178-0.502c0.091-0.053,0.174-0.099,0.258-0.137 c0.251-0.137,0.479-0.289,0.706-0.44c0.084-0.061,0.182-0.107,0.243-0.152c0.175-0.136,0.29-0.266,0.419-0.388 c0.061-0.061,0.136-0.099,0.198-0.166c0.045-0.024,0.061-0.062,0.091-0.099c0.022-0.024,0.038-0.046,0.06-0.068 c0.357-0.411,0.509-0.752,0.524-1.026c0.03-0.198,0.015-0.372-0.046-0.509c-0.242-0.494-0.95-0.684-1.884-0.684 c-0.296,0-0.63,0.023-0.98,0.054c-0.099,0.023-0.205,0.023-0.289,0.038c-0.061,0.008-0.106,0.016-0.152,0.023 c-0.228,0.03-0.471,0.076-0.707,0.122c-1.709,0.288-3.366,0.729-5.098,0.881c-0.076,0.007-0.144,0.015-0.22,0.015 c-0.623,0.054-1.246,0.084-1.869,0.107c-0.122,0-0.244,0-0.35,0c-0.509,0-0.995,0-1.489,0c-0.19,0-0.365,0-0.547-0.016 c-0.813-0.023-1.679-0.076-2.56-0.152c-0.206-0.023-0.418-0.038-0.63-0.061c-0.51-0.046-1.034-0.122-1.565-0.182 c-0.92-0.114-1.838-0.258-2.75-0.411c-0.434-0.076-0.851-0.129-1.292-0.212c-1.14-0.213-2.288-0.472-3.42-0.737 c-0.623-0.153-1.223-0.342-1.838-0.502c-0.676-0.19-1.353-0.38-2.029-0.585c-0.531-0.167-1.048-0.341-1.564-0.509 c-0.935-0.319-1.862-0.646-2.782-1.01c-0.243-0.091-0.509-0.19-0.752-0.289c-4.567-1.846-8.533-4.286-12.362-7.37 c-0.988-0.783-3.548-3.138-5.144-2.674c-0.008,0-0.023,0-0.038,0c-0.145,0.038-0.266,0.091-0.395,0.182 c-0.008,0-0.016,0-0.03,0.016c-1.056,0.828-0.509,2.302,0.349,3.57c0.038,0.054,0.084,0.106,0.114,0.167 c0.129,0.183,0.258,0.342,0.388,0.517c0.182,0.236,0.372,0.464,0.6,0.707C200.571,157.4,200.86,157.689,201.066,157.856z"/> <path class="st0" d="M245.08,182.724c-0.007,0-0.007,0-0.015,0C245.605,182.679,245.78,182.664,245.08,182.724z"/> <path class="st0" d="M213.533,179.092c0.563,0.168,1.132,0.327,1.725,0.486c8.586,2.378,17.787,3.64,26.722,3.305 c1.049-0.03,2.074-0.083,3.069-0.16c-0.836,0.061-2.439,0.19-2.773,0.22c0.205-0.023,1.003-0.076,2.781-0.22 c0.016,0,0.008,0,0.022,0c0.623-0.061,1.254-0.137,1.884-0.25c0.054-0.008,0.107-0.023,0.152-0.03 c0.51-0.099,1.004-0.22,1.497-0.373c0.061-0.015,0.114-0.038,0.175-0.053c0.372-0.129,0.752-0.25,1.11-0.418 c0.44-0.19,0.828-0.395,1.14-0.608c0.174-0.106,0.342-0.258,0.493-0.388c0.76-0.661,0.996-1.276,0.851-1.694 c-0.167-0.387-0.593-0.654-1.193-0.798c-0.016,0-0.03-0.007-0.03-0.007c-0.046-0.016-0.084-0.008-0.121-0.016 c-0.304-0.061-0.639-0.099-1.034-0.099c-0.311-0.008-0.63,0.008-0.942,0.038c-0.037,0-0.068,0-0.106,0 c-1.148,0.137-2.31,0.403-3.442,0.578c-0.03,0-0.076,0-0.107,0.016c-0.569,0.075-1.132,0.136-1.702,0.198 c-0.167,0.015-0.35,0.03-0.524,0.045c-0.456,0.03-0.904,0.061-1.352,0.084c-0.244,0.014-0.494,0.03-0.752,0.03 c-0.35,0.015-0.722,0.03-1.079,0.03c-0.228,0-0.44,0.007-0.668,0.007c-0.084,0-0.19-0.007-0.282-0.007 c-0.646,0-1.306-0.016-1.99-0.03c-0.441-0.016-0.89-0.054-1.33-0.068c-2.606-0.137-5.417-0.411-8.259-0.859 c-4.172-0.654-8.366-1.618-11.952-2.773c-2.34-0.737-4.407-1.566-6.056-2.34c-0.767-0.38-1.542-0.737-2.264-1.162 c-1.421-0.813-3.002-1.748-4.643-2.204c-0.372-0.114-0.729-0.198-1.049-0.236c0-0.015,0-0.015,0-0.015 c-0.273-0.016-0.516-0.016-0.744,0.022c-0.03,0.008-0.053,0.015-0.091,0.023c-0.083,0.016-0.182,0.022-0.258,0.053 c-0.608,0.221-0.942,0.897-0.585,1.976c0.114,0.326,0.327,0.698,0.585,1.071c0.084,0.136,0.167,0.265,0.258,0.388 c0.046,0.037,0.084,0.083,0.122,0.121c0.137,0.16,0.304,0.311,0.471,0.478c2.895,2.918,8.016,4.354,11.701,5.47 C213.154,178.994,213.344,179.032,213.533,179.092z"/> <path class="st0" d="M248.766,190.832c0.03-0.016,0.061-0.022,0.091-0.038C250.376,189.966,249.191,190.596,248.766,190.832z"/> <path class="st0" d="M423.718,345.975l0.121-0.015l-0.888-6.283c-1.444-10.189-3.928-23.379-10.395-34.981 c-0.228-0.676,0.373-3.123,0.623-4.179c0.206-0.859,0.426-1.763,0.54-2.53c0.425-3.214,0.73-6.565,0.866-9.954 c0.296-6.42,0.015-13.114-0.836-19.892c-1.588-12.62-4.931-24.405-9.946-35.034c-5.668-11.99-12.468-20.545-20.226-25.476 c14.702-22.566,20.377-54.022,15.576-86.678c-1.208-8.244-3.093-16.192-5.585-23.607c-1.292-3.89-2.69-7.34-4.247-10.569 c-0.851-1.763-1.687-3.335-2.591-4.81c-0.403-0.668-0.897-1.3-1.414-1.953c-0.562-0.729-1.421-1.816-1.489-2.317l-0.509-4.384 c-1.694-14.406-3.457-29.313-6.261-43.81C374.217,14.823,364.423,0,348.93,0c-0.547,0-1.087,0.022-1.642,0.045 c-6.732,0.456-13.106,3.654-20.043,10.044c-5.859,5.41-11.093,11.124-15.553,16.997c-4.916,6.459-8.92,13.069-11.891,19.633 c-0.19,0.426-0.364,0.988-0.547,1.596c-0.061,0.206-0.19,0.623-0.311,0.965l-13.714-0.007l-24.412,0.045 c-1.117-2.735-2.439-5.493-3.921-8.221c-3.176-5.881-7.112-11.709-11.693-17.332c-4.461-5.463-9.331-10.538-14.467-15.067 c-5.942-5.242-12.028-7.978-18.144-8.145l-0.584-0.015c-14.892,0-23.562,13.798-27.346,21.867 c-12.56-11.701-31.083-13.904-38.742-14.299C144.62,8.031,143.305,8,141.99,8c-15.522,0-29.51,4.748-39.388,13.358 C91.897,30.68,86.396,44.562,87.095,60.434c0.273,6.117,1.231,11.276,2.91,15.774c2.56,6.83,7.332,12.392,14.588,17.012 c0.402,0.258,0.828,0.517,1.254,0.767c1.649,1.003,3.533,2.12,4.11,3.472c0.403,0.95,0.426,2.348,0.441,3.723l0.015,1.094 c0.205,7.757-0.517,15.652-1.33,23.014c-0.555,4.984-1.193,10.052-1.816,14.96l-0.023,0.206 c-1.376,10.797-2.796,21.966-3.381,33.112c-0.972,18.683,0.486,34.457,4.506,48.209c4.202,14.422,11.808,27.748,21.981,38.545 c4.848,5.144,10.493,9.999,16.792,14.414c2.804,1.975,5.805,3.913,8.905,5.744c0.988,0.562,2.036,1.102,3.115,1.656 c1.998,1.01,4.072,2.059,5.478,3.434c4.68,4.513,5.106,9.87,1.17,14.71c-1.672,2.044-3.48,4.042-5.258,5.987 c-2.964,3.26-6.025,6.626-8.647,10.492c-19.177,28.349-16.571,64.47-12.164,92.772c1.253,8.008,2.819,15.94,4.657,23.584 c0.995,4.11,1.976,7.811,2.978,11.344c0.539,1.892,1.102,3.784,1.679,5.669c0.296,0.942,0.6,1.892,0.927,2.758 c-0.03,0.114-0.213,0.479-0.288,0.653c-0.153,0.312-0.312,0.646-0.456,0.996c-3.397,8.342-3.959,16.73-1.588,23.606 c2.332,6.785,7.688,12.439,15.089,15.918c7.393,3.48,15.69,4.954,22.885,6.063c7.712,1.186,15.326,1.794,22.642,1.794 c0.63,0,1.269,0,1.907-0.016c9.794-0.136,17.468-1.2,24.169-3.366c0.122-0.038,0.228-0.083,0.342-0.129 c0.464,0.403,0.926,0.79,1.413,1.17c1.36,1.094,2.796,2.128,4.271,3.1c3.168,2.066,6.587,3.844,10.143,5.265 c6.739,2.698,13.995,4.058,21.578,4.058c7.91,0,15.835-1.474,23.554-4.369c6.534-2.469,12.87-5.881,18.812-10.136 c1.345-0.957,2.713-1.998,4.073-3.084c0.015-0.016,0.03-0.016,0.037-0.03c2.744,2.416,6.368,4.285,11.093,5.698 c6.086,1.808,12.97,2.72,20.484,2.72c8.13,0,17.164-1.049,27.612-3.206c15.036-3.101,31.372-7.78,34.958-24.238 c1.186-5.41,0.76-11.503-1.231-17.635c-0.418-1.314-0.866-2.5-1.352-3.655c-0.083-0.182-0.159-0.38-0.243-0.562 c0.236-0.455,0.456-0.911,0.684-1.367c1.095-2.242,2.151-4.665,3.336-7.621c3.952-9.923,6.884-21.069,8.7-33.135 c1.535-10.204,2.264-21.108,2.348-35.346C425.025,364.249,424.644,354.637,423.718,345.975z M185.74,94.162 c0.068-5.942,1.504-11.45,3.1-17.156c0.114-0.418,0.228-0.82,0.342-1.246c0.068-0.236,0.129-0.486,0.197-0.73 c0.236-0.836,0.464-1.656,0.692-2.492c0.145-0.532,0.281-1.056,0.418-1.588c0.258-0.98,0.502-1.953,0.744-2.94 c0.076-0.327,0.16-0.646,0.228-0.973c0.334-1.406,0.639-2.804,0.912-4.209c0-0.031,0.008-0.054,0.008-0.054 c0.266-1.382,0.478-2.75,0.676-4.126c0.023-0.121,0.046-0.235,0.053-0.349c0.038-0.289,0.076-0.592,0.114-0.882 c0.045-0.471,0.114-0.934,0.159-1.397c0.084-0.89,0.152-1.794,0.206-2.698c0.015-0.327,0.03-0.661,0.03-0.996 c0.03-0.797,0.045-1.595,0.038-2.393c-0.008-0.174,0.007-0.342,0.007-0.516c0,0-0.015-0.129-0.015-0.182 c-0.03-0.98-0.084-1.953-0.168-2.94c-0.03-0.244-0.068-0.502-0.099-0.76c-0.076-0.73-0.175-1.436-0.296-2.166 c-0.06-0.357-0.129-0.722-0.198-1.071c-0.137-0.684-0.296-1.36-0.478-2.044c-0.083-0.365-0.182-0.744-0.296-1.109 c-0.236-0.858-0.524-1.695-0.851-2.522c-0.03-0.099-0.068-0.206-0.106-0.297c-0.449-1.124-0.555-1.565-0.312-2.462 c0.144-0.426,0.288-0.866,0.441-1.292c0.235-0.654,0.479-1.277,0.729-1.922c0.16-0.388,0.312-0.775,0.472-1.17 c0.296-0.691,0.615-1.383,0.934-2.074c0.152-0.304,0.288-0.623,0.44-0.927c0.448-0.904,0.927-1.793,1.436-2.675 c-0.016,0.023-0.022,0.03-0.022,0.03c0.053-0.091,0.091-0.182,0.136-0.265c-0.037,0.083-0.075,0.159-0.114,0.235 c0.076-0.136,0.168-0.303,0.251-0.44c2.059-3.503,4.566-6.701,7.522-9.034c1.832-1.436,3.807-2.477,5.835-3.04 c0.076-0.015,0.145-0.045,0.228-0.06c0.25-0.069,0.486-0.107,0.737-0.152c0.19-0.038,0.38-0.084,0.578-0.106 c0.19-0.03,0.38-0.038,0.562-0.068c0.244-0.023,0.479-0.045,0.714-0.061c0.388-0.008,0.783-0.015,1.17,0 c0.388,0.016,0.767,0.061,1.155,0.114c0.062,0.007,0.137,0.015,0.206,0.022c0.387,0.053,0.767,0.137,1.155,0.228 c0.037,0,0.068,0.015,0.106,0.023c1.109,0.266,2.196,0.692,3.282,1.223c2.492,1.224,4.78,3.01,6.884,4.894 c0.729,0.676,1.459,1.367,2.173,2.043c1.572,1.512,3.107,3.078,4.596,4.666c2.993,3.176,5.797,6.526,8.388,10.014 c4.43,5.987,8.35,12.484,11.116,19.238c0.076,0.167,0.145,0.342,0.22,0.532c0.296,0.722,0.563,1.451,0.821,2.181 c0.091,0.25,0.19,0.486,0.266,0.721c0.273,0.76,0.402,1.269,0.569,1.626l0.228,0.668l2.508,0.008l8.221,0.016 c0.563,0,0.692-0.023,0.707,0.304v0.479v20.689c0,0.966-0.031,1.945,0,2.903v0.638c0,1.186,0.174,2.332,0.455,3.434 c0.024,0.091,0.054,0.183,0.068,0.274c0.054,0.19,0.114,0.38,0.175,0.563c0.046,0.106,0.076,0.212,0.107,0.326 c0.022,0.061,0.06,0.129,0.091,0.183c0.22,0.585,0.471,1.147,0.767,1.687c0.008,0.008,0.016,0.022,0.03,0.045 c0.312,0.57,0.692,1.117,1.087,1.634c0.007,0.016,0.015,0.023,0.023,0.038c2.028,2.606,4.992,4.445,8.388,5.006 c0.091,0.008,0.19,0.016,0.274,0.03c0.624,0.092,1.254,0.152,1.915,0.152c0.646,0,1.276-0.06,1.907-0.152 c0.091-0.015,0.182-0.022,0.274-0.03c3.396-0.562,6.359-2.401,8.38-5.006c0.008-0.016,0.016-0.023,0.022-0.038 c0.411-0.516,0.783-1.064,1.102-1.634c0.008-0.023,0.015-0.038,0.023-0.045c0.296-0.54,0.547-1.102,0.767-1.687 c0.022-0.054,0.06-0.122,0.091-0.183c0.038-0.106,0.061-0.22,0.107-0.319c0.061-0.19,0.114-0.38,0.167-0.57 c0.03-0.099,0.061-0.19,0.076-0.281c0.288-1.102,0.464-2.242,0.464-3.427v-0.494c0.016-1.04,0-2.089,0-3.138V59.705 c0-0.289,0.236-0.494,0.593-0.608h5.493c0.684,0,4.612,0.296,6.406,0h0.752l0.136-0.38c3.412-9.968,8.647-19.056,15.105-27.268 c0.312-0.388,0.631-0.783,0.942-1.163c0.707-0.874,1.436-1.748,2.173-2.591c0.433-0.517,0.874-1.033,1.315-1.528 c0.668-0.744,1.337-1.481,2.028-2.21c1.786-1.908,3.632-3.776,5.539-5.577c2.356-2.234,4.536-4.096,7.028-5.554 c1.216-0.706,2.462-1.314,3.731-1.748c0.023-0.022,0.046-0.022,0.068-0.022c0.555-0.206,1.11-0.357,1.664-0.486 c0.099-0.023,0.19-0.054,0.288-0.076c0.532-0.114,1.064-0.198,1.596-0.251c0.236-0.023,0.486-0.03,0.737-0.038 c0.22-0.016,0.433-0.016,0.661-0.016c4.437,0.046,8.418,2.356,11.473,5.585c0.076,0.083,0.137,0.16,0.212,0.22 c0.342,0.388,0.676,0.791,1.011,1.186c0.319,0.402,0.623,0.805,0.92,1.215c0.045,0.068,0.099,0.137,0.144,0.205 c0.091,0.137,0.167,0.266,0.266,0.402c0.403,0.623,0.805,1.246,1.155,1.884c0.046,0.076,0.076,0.145,0.114,0.213 c2.044,3.753,3.13,7.811,3.943,11.982c0.464,2.5,0.882,5.038,1.285,7.568c0.364,2.264,0.714,4.528,1.041,6.8 c0.228,1.588,0.478,3.168,0.699,4.764c0.471,3.29,0.912,6.58,1.33,9.87c0.122,0.995,0.25,1.998,0.373,3.001 c0.326,2.599,0.638,5.19,0.949,7.803c0.282,2.356,0.547,4.726,0.813,7.097c0.03,0.418,0.03,1.315,0.19,1.87l0.023,0.204 l0.152,0.167c1.116,1.193,2.104,2.485,2.994,3.868c0.076,0.122,0.16,0.258,0.228,0.38c0.122,0.183,0.228,0.38,0.334,0.562 c0.244,0.418,0.478,0.851,0.699,1.276c1.048,2.037,1.998,4.18,2.842,6.383c0.752,1.945,1.443,3.913,2.082,5.911 c0.372,1.156,0.706,2.318,1.041,3.48c0.402,1.406,0.783,2.826,1.139,4.255c2.249,9.315,3.648,18.888,4.035,28.493 c0.57,13.129-0.654,26.426-4.072,39.039c-0.054,0.197-0.099,0.38-0.16,0.562c-0.419,1.52-0.874,3.032-1.36,4.536 c-0.342,1.033-0.684,2.066-1.057,3.093c-0.167,0.47-0.341,0.957-0.524,1.428c-0.562,1.497-1.155,2.978-1.778,4.437 c-0.16,0.38-0.327,0.752-0.494,1.116c-0.478,1.071-0.965,2.136-1.474,3.199c-0.175,0.357-0.342,0.706-0.524,1.072 c-0.706,1.42-1.459,2.834-2.272,4.209c-0.129,0.22-0.273,0.433-0.402,0.646c-0.669,1.11-1.368,2.203-2.098,3.275 c-0.19,0.281-0.38,0.555-0.57,0.828c-0.654,0.859-1.398,1.505-2.204,2.098c-0.608,0.402-1.208,0.813-1.824,1.216 c-0.851,0.54-1.709,1.071-2.56,1.588c-0.388,0.236-0.767,0.478-1.155,0.714c-1.246,0.737-2.5,1.436-3.761,2.135 c-0.327,0.167-0.654,0.326-0.98,0.502c-0.965,0.517-1.923,1.026-2.91,1.52c-0.502,0.244-1.018,0.486-1.512,0.73 c-0.813,0.395-1.626,0.79-2.439,1.162c-0.622,0.289-1.246,0.562-1.869,0.836c-0.661,0.304-1.338,0.6-2.006,0.896 c-0.752,0.319-1.504,0.623-2.256,0.934c-0.532,0.213-1.057,0.441-1.596,0.646c-0.889,0.357-1.785,0.699-2.69,1.041 c-0.387,0.145-0.783,0.296-1.17,0.441c-0.98,0.365-1.968,0.714-2.948,1.056c-0.312,0.114-0.638,0.228-0.965,0.342 c-0.98,0.342-1.968,0.668-2.956,0.988c-0.349,0.114-0.692,0.228-1.041,0.334c-0.928,0.296-1.862,0.585-2.774,0.866 c-0.455,0.137-0.896,0.274-1.345,0.403c-0.82,0.25-1.641,0.486-2.454,0.706c-0.593,0.182-1.178,0.334-1.763,0.501 c-0.692,0.191-1.39,0.38-2.074,0.563c-0.722,0.19-1.443,0.372-2.165,0.554c-0.6,0.145-1.208,0.304-1.801,0.448 c-0.698,0.183-1.398,0.334-2.097,0.502c-16.055,3.792-29.602,5.242-35.27,5.721c-0.896,0.068-1.8,0.152-2.697,0.198 c-0.122,0.016-0.251,0-0.38,0.008c-0.752-0.03-3.738-0.167-8.266-0.6c-1.892-0.182-3.792-0.402-5.692-0.623 c-0.296-0.038-0.615-0.084-0.919-0.122c-1.634-0.212-3.267-0.44-4.885-0.676c-0.479-0.076-0.942-0.144-1.422-0.228 c-1.603-0.243-3.19-0.509-4.794-0.798c-0.41-0.084-0.82-0.152-1.231-0.228c-1.71-0.319-3.427-0.654-5.129-1.01 c-0.448-0.091-0.911-0.198-1.36-0.289c-0.759-0.167-1.519-0.334-2.286-0.509c-0.616-0.145-1.223-0.282-1.838-0.434 c-0.608-0.137-1.224-0.288-1.832-0.44c-0.729-0.183-1.467-0.365-2.203-0.555c-0.479-0.122-0.942-0.252-1.413-0.373 c-0.851-0.22-1.687-0.456-2.538-0.699c-0.357-0.099-0.722-0.205-1.071-0.304c-0.934-0.273-1.877-0.539-2.819-0.828 c-0.296-0.099-0.593-0.19-0.89-0.282c-0.964-0.311-1.952-0.615-2.948-0.934c-0.319-0.121-0.646-0.236-0.973-0.342 c-0.934-0.319-1.884-0.639-2.819-0.972c-0.471-0.167-0.942-0.35-1.421-0.524c-0.797-0.289-1.588-0.578-2.378-0.882 c-0.622-0.243-1.238-0.494-1.861-0.744c-0.653-0.266-1.307-0.509-1.96-0.783c-1.162-0.494-2.325-1.003-3.479-1.52 c-0.258-0.107-0.502-0.22-0.753-0.334c-1.223-0.562-2.439-1.132-3.64-1.724c-0.464-0.236-0.926-0.479-1.39-0.714 c-0.836-0.426-1.664-0.844-2.484-1.285c-0.517-0.273-1.026-0.562-1.535-0.843c-0.76-0.426-1.52-0.85-2.272-1.292 c-0.562-0.327-1.109-0.668-1.664-0.995c-0.668-0.411-1.33-0.813-1.982-1.231c-0.555-0.349-1.102-0.714-1.656-1.087 c-0.631-0.426-1.261-0.844-1.884-1.284c-0.631-0.44-1.269-0.896-1.892-1.352c-0.593-0.51-0.965-1.033-1.2-1.991 c-0.205-1.261-0.418-2.522-0.592-3.807v-0.015c-0.191-1.467-0.365-2.948-0.524-4.414c-0.054-0.402-0.092-0.821-0.129-1.239 c-0.555-5.493-0.912-11.04-1.194-16.616c-0.57-11.458-0.782-22.969-0.874-34.48c-0.076-11.518-0.015-23.052,0.129-34.593 L185.74,94.162z M185.55,27.14c-0.008,0.008-0.008,0.016-0.008,0.016c-0.099-0.091-0.19-0.175-0.281-0.281L185.55,27.14z M223.176,489.67c-0.106,0-0.539,0.038-0.98,0.076c-4.3,0.304-8.654,0.426-13.023,0.388c-9.095-0.099-18.288-0.768-27.185-2.439 c-0.631-0.114-1.269-0.258-1.9-0.395c-1.269-0.258-2.538-0.532-3.784-0.851c-0.251-0.053-0.502-0.106-0.76-0.167 c-0.129-0.037-0.281-0.076-0.418-0.106c-1.861-0.486-3.67-1.034-5.402-1.618c-0.349-0.129-0.706-0.236-1.071-0.373 c-0.038-0.015-0.076-0.038-0.114-0.053c-1.482-0.578-2.902-1.285-4.224-2.098c-0.114-0.083-0.228-0.144-0.334-0.22 c-0.578-0.372-1.132-0.775-1.649-1.215c-0.145-0.122-0.281-0.244-0.426-0.365c-0.502-0.456-1.003-0.934-1.451-1.459 c-0.076-0.107-0.159-0.206-0.251-0.304c-0.455-0.577-0.888-1.185-1.268-1.846c-0.153-0.251-0.282-0.524-0.418-0.798 c-0.062-0.107-0.114-0.22-0.175-0.335c-1.124-2.469-1.603-5.341-1.497-8.373c0.083-2.02,0.41-4.102,0.934-6.154 c0.38-1.489,0.874-3.039,1.428-4.46c0.023-0.084,0.046-0.152,0.084-0.22c0.076-0.213,0.167-0.411,0.251-0.608 c0.266-0.547,0.942-1.489,0.98-2.028c0.038-0.524-0.486-1.626-0.714-2.204c-0.213-0.676-0.426-1.36-0.631-2.028 c-0.357-1.156-0.722-2.326-1.056-3.496c-0.244-0.82-0.464-1.656-0.707-2.492c-0.296-1.094-0.608-2.196-0.896-3.297 c-0.236-0.942-0.478-1.892-0.714-2.834c-0.228-0.919-0.464-1.831-0.684-2.758c-0.235-0.973-0.456-1.945-0.676-2.918 c-0.22-0.972-0.448-1.937-0.646-2.902c-0.212-0.965-0.426-1.922-0.616-2.887c-0.198-0.972-0.403-1.93-0.593-2.91 c-0.182-0.95-0.364-1.907-0.555-2.864c-0.182-0.988-0.357-1.99-0.531-2.978c-0.19-1.033-0.365-2.066-0.532-3.1 c-0.121-0.714-0.228-1.414-0.341-2.135c-0.258-1.588-0.494-3.184-0.722-4.78c-1.064-7.659-1.808-15.355-2.173-23.022 c-0.19-3.769-0.266-7.522-0.22-11.245c0.015-0.608,0.038-1.231,0.061-1.839c0.03-1.277,0.061-2.553,0.122-3.837 c0.015-0.236,0.038-0.464,0.046-0.692c0.091-1.542,0.212-3.069,0.357-4.597c0.053-0.63,0.137-1.269,0.206-1.899 c0.075-0.706,0.174-1.406,0.265-2.104c1.596-11.876,5.182-23.387,11.853-33.508c0.069-0.084,0.122-0.16,0.168-0.235 c3.943-5.912,9.042-10.584,13.554-15.956c0.046-0.054,0.084-0.106,0.129-0.152c0.16-0.19,0.312-0.357,0.464-0.547 c0.061-0.069,0.107-0.16,0.175-0.235c0.114-0.152,0.235-0.282,0.357-0.426c1.382-1.809,2.652-3.83,3.563-6.109 c0.927-2.272,1.467-4.824,1.459-7.4c-0.008-0.806-0.084-1.595-0.19-2.378c-0.016-0.084-0.03-0.159-0.046-0.25 c-0.099-0.7-0.236-1.376-0.41-2.052c-0.03-0.114-0.038-0.236-0.076-0.357c-0.022-0.099-0.068-0.19-0.099-0.289 c-0.106-0.357-0.22-0.706-0.349-1.049c-0.106-0.311-0.213-0.615-0.327-0.926c-0.016-0.024-0.022-0.054-0.046-0.084 c-0.045-0.122-0.099-0.236-0.16-0.357c-1.687-3.951-4.558-7.689-8.008-10.174c-0.198-0.16-0.41-0.311-0.638-0.486l-0.22-0.16 l-0.312-0.159c-1.474-0.752-2.918-1.535-4.361-2.34c-0.448-0.243-0.889-0.501-1.33-0.752c-1.026-0.592-2.044-1.193-3.055-1.808 c-0.464-0.281-0.926-0.555-1.382-0.844c-1.186-0.744-2.356-1.504-3.51-2.28c-0.22-0.16-0.448-0.304-0.668-0.456 c-1.338-0.919-2.659-1.876-3.959-2.856c-0.388-0.289-0.775-0.593-1.148-0.897c-0.98-0.752-1.945-1.52-2.894-2.317 c-0.274-0.236-0.562-0.478-0.851-0.722c-7.864-6.739-14.58-14.725-19.565-23.797c-0.198-0.365-0.38-0.722-0.57-1.094 c-0.562-1.056-1.102-2.135-1.61-3.237c-0.296-0.623-0.6-1.261-0.882-1.9c-0.121-0.273-0.251-0.555-0.365-0.82 c-0.41-0.972-0.798-1.945-1.178-2.925c-0.083-0.22-0.174-0.418-0.243-0.623c-0.426-1.14-0.813-2.287-1.193-3.426 c-0.099-0.282-0.183-0.563-0.274-0.844c-0.349-1.102-0.676-2.211-0.987-3.335c-0.016-0.054-0.031-0.107-0.054-0.16 c-1.8-6.626-2.887-13.486-3.426-20.424c-0.859-11.147-0.312-22.475,0.714-33.834c0.676-7.302,1.588-14.634,2.5-22.019 c0.152-1.231,0.304-2.454,0.456-3.662c0.304-2.545,0.608-5.091,0.904-7.636c0.03-0.342,0.076-0.676,0.114-1.026 c0.069-0.593,0.137-1.2,0.198-1.793c0.084-0.745,0.16-1.467,0.236-2.211c0.167-1.679,0.327-3.366,0.47-5.06 c0.038-0.486,0.069-0.965,0.107-1.459c0.114-1.36,0.205-2.72,0.281-4.088c0.023-0.334,0.062-0.66,0.076-0.995 c0.288-5.47,0.775-11.572-0.327-17.028c-0.061-0.258-0.129-0.531-0.206-0.797c-0.053-0.213-0.098-0.434-0.166-0.646 c-0.312-1.026-0.73-2.074-1.292-3.039c-1.07-1.847-2.522-3.343-3.92-4.468c-1.398-1.132-2.758-1.99-3.996-2.773 c-1.216-0.76-2.333-1.467-3.366-2.181c-0.054-0.038-0.107-0.069-0.168-0.114c-0.152-0.107-0.296-0.228-0.448-0.335 c-5.387-3.943-7.925-9.68-8.906-16.168c-0.015-0.099-0.038-0.198-0.045-0.304c-0.122-0.813-0.228-1.626-0.312-2.439 c0-0.03,0-0.053,0-0.053C97.77,51.568,100.3,40.52,107.64,32.436c0.273-0.304,0.555-0.608,0.844-0.896 c0.349-0.357,0.714-0.722,1.086-1.064c0.79-0.73,1.604-1.428,2.477-2.09c0.091-0.083,0.198-0.145,0.304-0.22 c0.888-0.661,1.816-1.292,2.757-1.876c0.137-0.084,0.274-0.16,0.403-0.236c4.407-2.637,9.376-4.452,14.55-5.531 c6.451-1.33,13.19-1.558,19.808-0.76c0.228,0.03,0.464,0.061,0.7,0.084c1.215,0.159,2.438,0.357,3.647,0.578 c1.246,0.235,2.485,0.524,3.716,0.828c0.129,0.038,0.266,0.076,0.41,0.107c1.254,0.319,2.5,0.684,3.723,1.078 c1.185,0.395,2.363,0.828,3.518,1.292c0.144,0.061,0.296,0.122,0.44,0.182c1.011,0.418,2.014,0.874,2.978,1.352 c0.684,0.35,1.345,0.706,2.006,1.095c0.106,0.061,0.22,0.121,0.334,0.19c6.564,3.852,11.731,9.504,13.327,17.528 c0.038,0.205,0.076,0.41,0.114,0.623c0.107,0.585,0.183,1.17,0.252,1.762c0.402,3.45,0.273,7.09-0.213,10.736 c-0.129,1.026-0.311,2.059-0.501,3.092c-1.846,9.52-5.73,18.813-6.672,28.493c0,0.046,0,0.076,0,0.121 c-0.022,0.167-0.022,0.319-0.03,0.494c-0.456,5.273-0.136,10.698-0.167,15.979c0,0.076,0,0.144,0,0.228l-0.015,3.252 c-0.008,1.504,0.008,2.993,0,4.468c0,3.418,0,6.83,0.022,10.242c0,1.892,0.016,3.791,0.024,5.668 c0.015,1.808,0.022,3.632,0.045,5.44c0.023,2.842,0.069,5.699,0.114,8.555c0.007,0.122,0.007,0.244,0.007,0.38 c0,0.045,0,0.106,0,0.16c0.03,2.044,0.084,4.08,0.129,6.116c0.023,0.988,0.038,1.968,0.061,2.956 c0.054,1.876,0.106,3.761,0.16,5.646c0.053,1.413,0.091,2.826,0.144,4.239c0.061,1.542,0.114,3.093,0.175,4.65 c0.083,1.816,0.167,3.616,0.258,5.432c0.045,0.874,0.076,1.74,0.122,2.613c0.615,11.45,1.026,23.577,3.951,34.784 c0.281,1.132,0.593,2.265,0.958,3.412l0.304-0.099c0.19,0.7,0.411,1.406,0.639,2.112c0.076,0.228,0.152,0.433,0.228,0.661 c0.174,0.493,0.356,1.003,0.547,1.504c0.091,0.22,0.167,0.426,0.258,0.639c0.22,0.562,0.463,1.116,0.721,1.687 c0.054,0.121,0.099,0.235,0.152,0.349c3.092,6.747,8.244,13.813,16.328,20.104c0.175,0.136,0.357,0.289,0.539,0.425 c0.411,0.32,0.836,0.624,1.261,0.928c0.395,0.289,0.798,0.577,1.208,0.858c0.304,0.221,0.6,0.426,0.912,0.631 c0.099,0.076,0.214,0.152,0.319,0.228c0.228,0.152,0.472,0.288,0.7,0.44c0.615,0.395,1.238,0.783,1.876,1.17 c0.418,0.258,0.836,0.502,1.254,0.745c0.539,0.304,1.094,0.615,1.648,0.92c0.502,0.266,1.003,0.531,1.497,0.805 c0.494,0.25,0.988,0.494,1.489,0.744c0.577,0.281,1.155,0.57,1.74,0.844c0.449,0.205,0.912,0.41,1.368,0.615 c0.639,0.297,1.292,0.57,1.945,0.844c0.434,0.19,0.882,0.365,1.33,0.539c0.684,0.282,1.384,0.555,2.074,0.813 c0.456,0.175,0.92,0.342,1.39,0.51c0.707,0.25,1.406,0.493,2.112,0.737c0.494,0.159,1.003,0.326,1.497,0.486 c0.714,0.228,1.436,0.448,2.143,0.654c0.524,0.167,1.041,0.304,1.572,0.456c0.251,0.076,0.51,0.152,0.768,0.228 c0.365,0.106,0.744,0.19,1.109,0.288c0.82,0.212,1.641,0.426,2.492,0.63c0.646,0.16,1.306,0.312,1.96,0.456 c0.768,0.175,1.55,0.342,2.333,0.51c0.738,0.152,1.466,0.303,2.203,0.44c0.73,0.152,1.474,0.288,2.219,0.418 c0.805,0.145,1.61,0.274,2.409,0.403c0.714,0.114,1.413,0.228,2.135,0.334c0.372,0.046,0.721,0.114,1.078,0.16 c0.479,0.068,0.958,0.122,1.428,0.191c0.806,0.098,1.618,0.204,2.431,0.303c0.867,0.099,1.741,0.19,2.599,0.274 c0.813,0.083,1.618,0.167,2.439,0.235c0.319,0.03,0.638,0.068,0.965,0.099c0.555,0.046,1.11,0.076,1.664,0.114 c0.858,0.068,1.71,0.129,2.576,0.19c0.342,0.022,0.669,0.053,1.004,0.068c0.896,0.045,1.8,0.099,2.704,0.137 c0.022,0.007,0.061-0.008,0.083-0.008c0.282,0.015,0.54,0.03,0.829,0.046c0.6-0.274,1.223-0.51,1.854-0.73 c0.091-0.038,0.19-0.068,0.296-0.099c0.22-0.083,0.471-0.129,0.706-0.205c0.539-0.16,1.094-0.311,1.641-0.425 c0.289-0.062,0.585-0.099,0.866-0.137c0.51-0.091,1.018-0.167,1.52-0.213c0.327-0.03,0.668-0.038,0.995-0.053 c0.47-0.022,0.95-0.038,1.428-0.022c0.357,0.007,0.714,0.03,1.071,0.06c0.456,0.023,0.912,0.061,1.375,0.129 c0.35,0.053,0.7,0.114,1.049,0.182c0.433,0.084,0.866,0.175,1.307,0.289c0.342,0.091,0.684,0.183,1.018,0.289 c0.433,0.137,0.859,0.288,1.284,0.449c0.456,0.174,0.912,0.334,1.352,0.547c0.167-0.016,0.319-0.016,0.494-0.03 c1.565,0.197,3.419-0.152,4.901-0.243c0.668-0.046,1.36-0.107,2.036-0.152c0.995-0.084,2.006-0.144,2.97-0.236 c0.615-0.053,1.223-0.129,1.838-0.182c1.049-0.114,2.098-0.221,3.123-0.327c0.631-0.084,1.277-0.183,1.915-0.258 c0.988-0.137,1.998-0.258,2.963-0.411c0.63-0.091,1.262-0.198,1.884-0.303c0.988-0.16,1.968-0.319,2.933-0.494 c0.198-0.03,0.387-0.068,0.593-0.099c0.623-0.121,1.253-0.25,1.876-0.38c0.539-0.114,1.079-0.213,1.603-0.319 c0.836-0.183,1.664-0.373,2.493-0.563c0.524-0.129,1.04-0.243,1.55-0.365c0.805-0.205,1.61-0.418,2.408-0.63 c0.51-0.129,1.034-0.266,1.535-0.403c0.73-0.212,1.481-0.44,2.211-0.661c0.539-0.16,1.094-0.326,1.626-0.493 c0.66-0.213,1.314-0.441,1.983-0.654c0.592-0.206,1.193-0.411,1.77-0.623c0.593-0.206,1.17-0.426,1.755-0.646 c0.654-0.25,1.3-0.494,1.93-0.752c0.524-0.205,1.041-0.426,1.565-0.646c0.699-0.296,1.398-0.593,2.067-0.896 c0.464-0.205,0.904-0.411,1.36-0.623c0.805-0.373,1.573-0.752,2.348-1.148c0.25-0.121,0.509-0.243,0.752-0.357 c0.114-0.068,0.22-0.121,0.319-0.174c0.388-0.198,0.76-0.411,1.14-0.608c0.463-0.259,0.926-0.51,1.39-0.776 c0.555-0.311,1.078-0.622,1.61-0.934c0.212-0.129,0.434-0.25,0.638-0.387c12.18-7.378,19.854-16.366,24.634-24.77 c0.106-0.19,0.204-0.372,0.303-0.555c0.342-0.6,0.662-1.193,0.958-1.778c0.068-0.129,0.136-0.243,0.198-0.372 c0.022-0.054,0.053-0.106,0.083-0.167c0.327-0.654,0.646-1.322,0.942-1.968c5.114,3.396,9.11,8.608,12.476,14.216 c3.708,6.36,6.588,13.342,8.799,20.514c0.045,0.16,0.083,0.304,0.129,0.456c0.311,1.064,0.585,2.15,0.874,3.222 c0.265,0.972,0.524,1.937,0.751,2.902c0.244,1.018,0.486,2.044,0.707,3.054c0.174,0.783,0.342,1.566,0.493,2.355 c0.258,1.269,0.51,2.554,0.722,3.837c0.091,0.494,0.167,1.003,0.258,1.497c0.251,1.542,0.464,3.092,0.654,4.635 c0.038,0.242,0.068,0.494,0.099,0.737c0.198,1.725,0.365,3.458,0.502,5.189c0.007,0.099,0.015,0.198,0.022,0.289 c0.129,1.786,0.228,3.571,0.273,5.357c0.008,0.144,0.008,0.273,0.008,0.418c0.054,1.649,0.054,3.298,0.023,4.946 c-0.015,0.48-0.023,0.958-0.045,1.436c-0.03,1.231-0.084,2.462-0.167,3.692c-0.106,1.505-0.212,3.002-0.38,4.506 c-0.046,0.373-0.091,0.752-0.137,1.14c-0.068,0.524-0.129,1.041-0.212,1.566c-0.038,0.357-0.099,0.706-0.153,1.056 c-0.106,0.654-0.205,1.33-0.327,1.991c-0.03,0.167-0.061,0.349-0.099,0.524c-0.16,0.843-0.319,1.679-0.501,2.522l-0.008,0.022 c-0.593,2.705-1.33,5.364-2.234,7.97c-0.107,0.289-0.206,0.578-0.311,0.867c-0.175,0.479-0.357,0.957-0.548,1.436 c-0.174,0.456-0.349,0.912-0.531,1.353c-0.198,0.456-0.395,0.896-0.585,1.336c-0.182,0.411-0.373,0.821-0.562,1.216 c-0.228,0.517-0.486,1.026-0.745,1.542c-0.129,0.243-0.25,0.486-0.38,0.737c-0.357,0.668-0.722,1.337-1.102,1.998 c-0.061,0.099-0.107,0.198-0.175,0.304c-0.273,0.472-0.562,0.942-0.843,1.422c-1.922,2.993-4.103,6.154-6.154,9.209 c-2.097,3.1-4.232,6.177-6.382,9.239c-0.205,0.289-0.425,0.592-0.631,0.896c-2.028,2.857-4.072,5.684-6.154,8.479 c-0.706,0.935-1.413,1.854-2.119,2.782c-0.57,0.759-1.132,1.504-1.717,2.248c-0.046,0.054-0.091,0.107-0.137,0.167 c-3.579,4.559-7.294,8.943-11.329,12.795c-0.616,0.578-1.246,1.14-1.876,1.68c-0.213,0.174-0.44,0.357-0.661,0.539 c-0.516,0.426-1.033,0.843-1.558,1.239c-0.046,0.03-0.091,0.083-0.152,0.114c-1.413,1.033-2.864,1.914-4.331,2.576h-0.015 c-0.334,0.144-0.661,0.266-0.995,0.402c-0.107,0.03-0.212,0.061-0.304,0.092c-0.259,0.091-0.517,0.16-0.768,0.228 c-0.204,0.053-0.418,0.091-0.623,0.136c-0.182,0.038-0.357,0.084-0.539,0.099c-0.403,0.068-0.797,0.114-1.215,0.129 c-1.619,0.061-3.42-0.106-5.19-0.38c-1.596-0.258-3.184-0.623-4.757-1.049c-0.258-0.068-0.516-0.136-0.767-0.205 c-0.631-0.175-1.253-0.387-1.869-0.593c-0.221-0.068-0.426-0.129-0.631-0.205c-4.316-1.504-8.411-3.632-12.012-6.322 c0,0,0,0-0.008,0c-0.661-0.486-1.284-0.995-1.907-1.52c-0.266-0.236-0.532-0.486-0.782-0.714c-0.373-0.334-0.73-0.668-1.079-1.01 c-0.418-0.418-0.821-0.844-1.208-1.269c-0.166-0.182-0.342-0.364-0.501-0.554c-5.136-6.01-7.484-13.548-7.522-21.26 c0-0.129,0-0.251,0-0.388c0.008-0.456,0.022-0.927,0.046-1.382c0.205-3.533,0.836-7.089,1.793-10.531 c0.205-0.7,0.433-1.384,0.676-2.066c0.084-0.252,0.167-0.51,0.258-0.745c0.122-0.304,0.258-0.615,0.38-0.92 c3.336-8.077,9.869-12.742,17.034-16.746c4.627-2.484,9.619-4.855,14.307-7.955c0.099-0.068,0.19-0.129,0.289-0.198 c0.137-0.083,0.274-0.167,0.41-0.25c0.129-0.099,0.251-0.19,0.38-0.282c6.511-4.391,12.262-10.105,16.677-16.578 c2.621-3.784,4.824-7.78,6.755-11.884c0,0,0.008-0.007,0.015-0.015c0.738-1.565,1.444-3.168,2.105-4.779 c0.03-0.053,0.061-0.122,0.084-0.174c0.053-0.145,0.114-0.289,0.159-0.433c0.623-1.528,1.216-3.077,1.778-4.62 c-1.838-0.653-3.67-1.292-5.508-1.952c-0.016-0.008-0.03-0.016-0.053-0.023l-1.163-0.402c-0.068,0.198-0.16,0.395-0.228,0.593 c-0.023,0.045-0.045,0.091-0.061,0.144c-0.539,1.497-1.094,2.986-1.687,4.461c-0.076,0.159-0.144,0.326-0.205,0.493 c-0.615,1.459-1.254,2.895-1.914,4.308c-0.129,0.274-0.258,0.548-0.388,0.821c-0.684,1.406-1.406,2.788-2.165,4.141 c-0.258,0.456-0.524,0.904-0.791,1.36c-0.608,1.041-1.238,2.052-1.899,3.054c-2.728,4.134-5.889,7.97-9.604,11.306 c4.262-12.977,5.646-26.715,6.063-40.337c0.061-1.854,0.099-3.67,0.129-5.456c-0.965,0.57-1.953,1.132-2.948,1.687 c-0.418,0.236-0.859,0.464-1.299,0.692c-0.532,0.289-1.056,0.562-1.596,0.836c-0.616,0.304-1.231,0.608-1.862,0.912 c-0.296,0.144-0.6,0.288-0.896,0.426c-10.492,4.877-23.577,8.669-39.859,10.507c-0.175,0.016-0.35,0.038-0.516,0.068 c-1.232,0.122-2.463,0.252-3.724,0.365c-0.319,0.022-0.646,0.046-0.957,0.076c-1.459,0.122-2.933,0.235-4.453,0.319 c2.857,2.5,5.022,5.736,6.23,9.338h-40.566c1.208-3.64,3.42-6.907,6.315-9.414c-1.626-0.106-3.206-0.228-4.772-0.364 c-0.19-0.016-0.387-0.046-0.585-0.062c-20.834-1.915-36.144-6.746-47.344-12.567c-0.402-0.206-0.805-0.418-1.201-0.631 c-0.486-0.265-0.957-0.516-1.428-0.782c-0.949-0.547-1.891-1.087-2.819-1.664c0.038,0.98,0.084,1.968,0.122,2.964 c1.04,22.406,5.728,52.851,26.251,71.064c0.304,0.274,0.6,0.54,0.912,0.798c0.524,0.448,1.041,0.888,1.588,1.314 c0.654,0.516,1.33,1.011,2.006,1.505c0.432,0.327,0.882,0.638,1.33,0.942c0.798,0.547,1.626,1.072,2.462,1.596 c0.35,0.204,0.699,0.394,1.048,0.608c0.836,0.478,1.687,0.942,2.554,1.39c0.296,0.152,0.592,0.304,0.896,0.464 c0.16,0.076,0.311,0.16,0.478,0.243c2.432,1.155,4.962,2.158,7.546,3.024h0.007c15.166,5.075,32.574,5.06,47.769,1.322 c-0.266,1.292-0.502,2.591-0.692,3.89c-0.083,0.555-0.129,1.124-0.198,1.687c-0.076,0.73-0.16,1.459-0.212,2.189 c-0.016,0.296-0.061,0.585-0.076,0.888c-0.038,0.631-0.038,1.254-0.038,1.892c0,0.121-0.007,0.258-0.007,0.38 c0.007,1.162,0.046,2.34,0.129,3.51c-0.935-0.152-1.877-0.282-2.834-0.395c-0.167-0.008-0.327-0.016-0.494-0.038 c-6.436-0.661-13.015-0.25-19.314,1.352c-8.456,2.106-16.336,6.132-23.196,11.253c-6.892,5.129-12.864,11.321-17.962,18.061 c-0.806,1.049-1.551,2.135-2.302,3.214c-0.205,0.289-0.395,0.562-0.6,0.851c-0.426,0.623-0.858,1.231-1.276,1.854 c-1.049,1.58-2.06,3.168-3.024,4.786c-0.387-1.368-0.805-2.705-1.254-4.027c-3.875-11.814-10.128-23.28-17.597-33.173 c-0.858-1.169-1.36-1.823-1.382-1.861c-1.876,1.474-3.738,2.956-5.615,4.414c0.988,1.276,1.923,2.614,2.865,3.951 c1.937,2.811,4.65,6.96,7.377,11.914c0.464,0.859,0.935,1.755,1.406,2.659c0.783,1.535,1.542,3.07,2.256,4.628 c0.19,0.402,0.38,0.828,0.57,1.238c0.372,0.859,0.744,1.717,1.102,2.568c0.243,0.585,0.486,1.17,0.706,1.748 c0.296,0.752,0.57,1.512,0.844,2.272c0.236,0.646,0.478,1.269,0.692,1.923c0.432,1.307,0.844,2.629,1.208,3.951 c0.099,0.365,0.167,0.737,0.266,1.109c0.274,1.072,0.539,2.15,0.752,3.252c0.137,0.654,0.25,1.323,0.365,1.991 c0.076,0.76,0.015,1.444-0.411,2.355c-0.691,1.459-1.336,2.933-1.96,4.422c-0.068,0.16-0.144,0.319-0.213,0.478 c-0.045,0.099-0.075,0.22-0.129,0.319c-0.539,1.33-1.063,2.659-1.55,4.004c-0.083,0.273-0.182,0.547-0.281,0.813 c-0.418,1.185-0.813,2.371-1.186,3.563c-0.053,0.19-0.121,0.38-0.19,0.57c-0.023,0.084-0.038,0.175-0.068,0.266 c-0.418,1.383-0.806,2.774-1.162,4.164c-0.038,0.167-0.084,0.319-0.122,0.486c-2.508,9.954-3.48,20.332-2.522,30.68 c0.083,0.867,0.182,1.733,0.296,2.599c0,0.046,0.007,0.076,0.015,0.114c0.183,1.405,0.395,2.811,0.654,4.217 c0.083,0.501,0.19,1.003,0.296,1.504c0.16,0.805,0.335,1.61,0.517,2.416c0.152,0.623,0.296,1.268,0.456,1.907 c0.288,1.086,0.6,2.18,0.926,3.251c0.228,0.708,0.472,1.422,0.714,2.128c0.205,0.608,0.433,1.216,0.661,1.824 c0.243,0.646,0.478,1.284,0.729,1.914c0.441,1.064,0.904,2.136,1.398,3.191c0.046,0.083,0.084,0.16,0.121,0.244 c0.228,0.463,0.456,0.911,0.7,1.36c0.448,0.896,0.904,1.778,1.398,2.644c0.258,0.44,0.517,0.896,0.783,1.322 c0.532,0.882,1.086,1.755,1.656,2.614c0.251,0.38,0.501,0.775,0.775,1.154c0.843,1.216,1.724,2.416,2.666,3.556 C227.218,489.252,225.197,489.487,223.176,489.67z M300.318,279.971c0,10.334-7.712,19.414-17.908,21.1v-22.049 c0-0.288,0.068-0.433,0.19-0.502h1.132h6.602h6.93h2.37c0.335,0,0.524,0.06,0.616,0.182 C300.281,279.128,300.318,279.546,300.318,279.971z M277.061,278.52v22.764c-0.73-0.06-1.444-0.159-2.158-0.304 c-0.122-0.023-0.243-0.053-0.364-0.076c-0.593-0.129-1.186-0.274-1.771-0.441c-0.106-0.03-0.198-0.075-0.303-0.106 c-0.593-0.191-1.186-0.403-1.763-0.639c-0.083-0.03-0.175-0.076-0.258-0.114c-0.578-0.258-1.14-0.524-1.695-0.813 c-0.091-0.061-0.182-0.114-0.281-0.167c-0.524-0.289-1.041-0.616-1.55-0.95c-0.106-0.068-0.213-0.152-0.319-0.235 c-0.472-0.32-0.92-0.669-1.361-1.034c-0.122-0.099-0.258-0.205-0.38-0.304c-0.418-0.365-0.805-0.744-1.192-1.14 c-0.122-0.121-0.251-0.228-0.365-0.357c-0.479-0.517-0.942-1.041-1.375-1.611c0,0,0,0-0.008-0.008 c-0.418-0.54-0.805-1.11-1.17-1.679c-0.114-0.19-0.206-0.38-0.319-0.562c-0.236-0.403-0.464-0.813-0.684-1.239 c-0.107-0.236-0.214-0.47-0.327-0.706c-0.175-0.387-0.342-0.767-0.494-1.17c-0.106-0.273-0.19-0.539-0.288-0.828 c-0.122-0.372-0.251-0.738-0.342-1.125c-0.107-0.342-0.19-0.699-0.266-1.048c-0.137-0.676-0.304-1.702-0.433-2.713 c-0.061-0.638-0.099-1.284-0.099-1.945c0-0.402,0.038-0.805,0.068-1.2c0.061-0.152,0.145-0.25,0.258-0.25H277.061z M312.71,482.846 c-0.402,0.335-0.813,0.676-1.223,1.011c-0.524,0.433-1.072,0.866-1.604,1.292c-4.323,3.336-8.973,6.208-13.858,8.456 c-0.334,0.167-0.661,0.32-1.003,0.456c-0.714,0.32-1.444,0.639-2.165,0.928c-0.988,0.395-1.976,0.759-2.979,1.094 c-0.388,0.137-0.782,0.258-1.177,0.395c-1.216,0.38-2.447,0.745-3.7,1.064c-13.441,3.465-27.885,1.505-39.229-6.511 c-0.038-0.03-0.083-0.053-0.129-0.084c-0.752-0.539-1.497-1.102-2.211-1.702c-2.127-1.717-4.096-3.648-5.888-5.736 c-0.084-0.099-0.167-0.206-0.25-0.304c-0.494-0.592-0.973-1.17-1.444-1.778c-0.251-0.335-0.486-0.676-0.729-1.011 c-0.282-0.38-0.562-0.744-0.821-1.14c-0.418-0.592-0.813-1.215-1.186-1.823c-0.091-0.122-0.16-0.236-0.243-0.365 c-2.766-4.498-4.87-9.429-6.352-14.542c-0.022-0.092-0.061-0.183-0.084-0.274c-0.197-0.714-0.388-1.443-0.577-2.165 c-0.045-0.205-0.099-0.433-0.152-0.646c-0.152-0.608-0.281-1.231-0.41-1.839c-0.076-0.342-0.144-0.699-0.213-1.048 c-0.099-0.502-0.19-1.019-0.273-1.52c-0.076-0.456-0.153-0.904-0.213-1.36c-0.068-0.441-0.137-0.874-0.19-1.3 c-0.046-0.319-0.076-0.623-0.114-0.95c-0.183-1.55-0.32-3.107-0.411-4.673c-0.015-0.273-0.022-0.531-0.03-0.805 c-0.083-1.55-0.114-3.108-0.098-4.665c0-0.25,0.015-0.502,0.03-0.744c0.03-1.535,0.099-3.077,0.213-4.62 c0.015-0.235,0.037-0.471,0.053-0.691c0.129-1.452,0.289-2.895,0.486-4.324c0.053-0.35,0.091-0.699,0.145-1.049 c0.19-1.306,0.425-2.614,0.676-3.905c0.16-0.836,0.327-1.679,0.524-2.508c0.166-0.759,0.349-1.534,0.532-2.28 c1.382-5.516,3.297-10.925,5.684-16.1c4.877-10.553,11.192-20.552,19.071-28.895c0.326-0.342,0.676-0.676,1.01-1.018 c1.011-1.026,2.022-2.052,3.085-3.024c0.137-0.122,0.274-0.251,0.411-0.38c1.132-1.026,2.294-2.006,3.479-2.948 c7.249-5.782,15.591-10.098,24.694-11.838c0.213-0.046,0.425-0.083,0.638-0.137c0.547-0.083,1.079-0.168,1.626-0.251 c0.418-0.053,0.836-0.114,1.253-0.159c0.41-0.046,0.821-0.091,1.239-0.129c0.494-0.054,1.003-0.068,1.512-0.107 c0.38-0.022,0.752-0.053,1.124-0.061c0.54-0.022,1.071-0.022,1.604-0.022c0.357,0,0.722-0.016,1.071-0.016 c0.585,0.016,1.17,0.046,1.763,0.076c0.296,0.022,0.6,0.03,0.904,0.045c0.843,0.068,1.694,0.152,2.545,0.251 c0.03,0,0.068,0,0.114,0.007c0.919,0.114,1.831,0.258,2.75,0.426c0.228,0.851,0.509,1.695,0.805,2.538 c0.023,0.076,0.061,0.16,0.091,0.228c0.106,0.289,0.22,0.562,0.334,0.844c0.251,0.623,0.501,1.238,0.775,1.846 c0.152,0.335,0.319,0.654,0.478,0.98c0.152,0.319,0.304,0.654,0.478,0.98c0.114,0.228,0.258,0.455,0.395,0.676 c0.167,0.304,0.349,0.608,0.524,0.912c0.304,0.509,0.623,0.995,0.958,1.489c0.144,0.22,0.281,0.463,0.433,0.691 c0.068,0.091,0.145,0.183,0.22,0.274c0.472,0.654,0.958,1.292,1.467,1.915c0.373,0.456,0.76,0.896,1.154,1.33 c0.282,0.311,0.555,0.623,0.836,0.919c0.426,0.449,0.866,0.882,1.306,1.307c0.198,0.175,0.38,0.349,0.563,0.532 c1.102,1.018,2.241,2.006,3.442,2.887c0.692,0.517,1.398,0.995,2.112,1.474c-1.429-0.137-2.857-0.319-4.286-0.501 c-0.676-0.092-1.368-0.183-2.066-0.282c-0.79-0.114-1.566-0.22-2.348-0.342c-0.851-0.129-1.71-0.266-2.583-0.41 c-0.175-0.031-0.357-0.062-0.524-0.092c-0.965-0.167-1.93-0.319-2.887-0.501c-0.319-0.061-0.638-0.122-0.95-0.183 c-1.504-0.281-2.993-0.585-4.482-0.896c-0.068-0.023-0.122-0.03-0.183-0.038c-1.489-0.327-2.986-0.676-4.46-1.033 c-0.168-0.038-0.342-0.083-0.502-0.121c-1.534-0.388-3.062-0.79-4.581-1.239c-0.016-0.015-0.03-0.015-0.046-0.015 c-2.013-0.593-4.354-1.839-6.565-1.96c-0.023,0-0.045,0-0.061,0c-0.235-0.016-0.463,0-0.684,0.016 c-0.144,0.007-0.288,0.015-0.425,0.03c-0.054,0.015-0.099,0.015-0.152,0.023c-0.099,0.015-0.198,0.053-0.296,0.083 c-0.129,0.038-0.243,0.068-0.357,0.106c-0.053,0.03-0.106,0.061-0.152,0.076c-0.888,0.395-1.504,1.071-1.824,1.884 c-0.144,0.372-0.212,0.775-0.22,1.185c0,0.069-0.008,0.122-0.008,0.182c0.008,0.152,0.03,0.288,0.054,0.426 c0.015,0.099,0.015,0.183,0.045,0.274c0,0,0,0.015,0.008,0.03c0.046,0.198,0.122,0.372,0.198,0.562 c0.053,0.098,0.099,0.197,0.152,0.304c0.456,0.821,1.269,1.505,2.424,1.786c0.228,0.053,0.532,0.137,0.866,0.22 c0.296,0.091,0.6,0.168,0.896,0.252c3.648,0.995,10.956,2.993,18.501,4.627c-0.547,1.55-1.147,3.07-1.77,4.589 c-0.129,0.304-0.266,0.631-0.41,0.95c-0.251,0.593-0.494,1.17-0.76,1.755c-0.16,0.372-0.349,0.775-0.524,1.155 c-0.448,0.897-0.676,0.942-1.641,0.661c-0.251-0.068-0.509-0.152-0.775-0.22c-1.786-0.548-3.579-1.087-5.371-1.626 c-0.73-0.228-1.467-0.456-2.189-0.676c-2.089-0.631-4.171-1.284-6.238-1.975c-0.099-0.038-0.213-0.068-0.312-0.099 c-3.289-1.102-6.701-2.948-10.12-3.632c-0.099-0.03-0.198-0.046-0.289-0.061c-0.152-0.031-0.304-0.068-0.448-0.092 c-0.114-0.015-0.22-0.015-0.319-0.023c-0.175-0.022-0.335-0.038-0.486-0.038c-0.274-0.015-0.562-0.015-0.821,0 c-1.269,0.137-2.196,0.646-2.788,1.406c-0.585,0.759-0.684,1.846-0.099,2.956c0.061,0.122,0.175,0.258,0.251,0.372 c0.03,0.038,0.038,0.054,0.053,0.068c0.099,0.152,0.198,0.304,0.327,0.44c0.182,0.221,0.402,0.426,0.646,0.639 c0.038,0.03,0.083,0.061,0.121,0.091c0.16,0.121,0.327,0.258,0.524,0.372c0.076,0.054,0.167,0.099,0.251,0.145 c0.06,0.03,0.114,0.061,0.16,0.091c2.818,1.618,6.565,2.37,9.581,3.343c0.008,0,0.008,0,0.008,0 c0.562,0.19,1.154,0.372,1.754,0.562l3.108,0.98c0.007,0.007,0.007,0.007,0.015,0.007c3.838,1.208,7.674,2.417,11.511,3.624 c-1.428,2.728-4.65,6.664-3.313,9.991c0.038,0.061,0.061,0.122,0.091,0.19c0.024,0.068,0.038,0.122,0.069,0.175 c0.046,0.076,0.099,0.145,0.152,0.228c0.083,0.121,0.152,0.258,0.243,0.365c0.076,0.099,0.152,0.16,0.236,0.243 c0.114,0.122,0.236,0.244,0.372,0.349c0.054,0.046,0.114,0.076,0.167,0.114c0.175,0.114,0.357,0.22,0.547,0.311 c0.03,0.008,0.061,0.023,0.091,0.03c0.221,0.106,0.441,0.167,0.669,0.213c0.022,0.015,0.045,0.015,0.06,0.015 c0.236,0.054,0.471,0.084,0.714,0.084c0.038,0,0.076,0,0.114,0c0.213-0.008,0.441-0.022,0.646-0.061 c0.084-0.023,0.152-0.054,0.227-0.054c0.175-0.053,0.342-0.091,0.51-0.167c0.113-0.038,0.22-0.091,0.319-0.152 c0.137-0.061,0.266-0.122,0.395-0.212c0.038-0.03,0.076-0.046,0.121-0.076c0.046-0.03,0.076-0.076,0.114-0.122 c0.236-0.167,0.425-0.372,0.623-0.593c0.038-0.045,0.076-0.099,0.114-0.152c0.168-0.22,0.311-0.472,0.44-0.744 c0.054-0.099,0.107-0.198,0.152-0.289c0.008-0.016,0.008-0.03,0.015-0.03c0.016-0.046,0.046-0.092,0.053-0.137 c0.258-0.593,0.479-1.231,0.707-1.824c0.045-0.106,0.083-0.22,0.121-0.319c0.236-0.593,0.456-1.17,0.684-1.763 c0.319-0.828,0.654-1.702,1.011-2.598c0.19-0.455,0.372-0.661,0.569-0.714c0.722,0.236,1.421,0.486,2.112,0.73 c0.722,0.243,1.436,0.486,2.15,0.744c0.494,0.182,0.98,0.334,1.444,0.517c1.003,0.357,2.006,0.73,2.994,1.109 c0.448,0.168,0.88,0.35,1.322,0.501c0.821,0.32,1.626,0.646,2.432,0.972c0.204,0.076,0.395,0.168,0.585,0.244 c1.177,0.486,2.347,0.98,3.502,1.489c2.348,1.049,5.068,2.918,7.818,3.586c0.144,0.054,0.296,0.092,0.433,0.122 c0.167,0.03,0.334,0.045,0.494,0.076c0.319,0.046,0.623,0.068,0.92,0.076c0.144,0,0.281,0,0.418-0.016 c0.395-0.015,0.775-0.061,1.132-0.144c0.045-0.016,0.083-0.016,0.129-0.022c0.015-0.008,0.015-0.008,0.03-0.008 c0.387-0.114,0.737-0.274,1.079-0.441c0.076-0.053,0.152-0.099,0.235-0.152c0.387-0.236,0.738-0.509,1.026-0.828 c1.284-1.383,1.155-3.686-1.193-5.288c-0.053-0.046-0.098-0.091-0.16-0.122c-0.015-0.015-0.023-0.015-0.038-0.037 c-0.061-0.024-0.114-0.054-0.167-0.084c-3.298-2.036-7.499-3.267-11.085-4.604c-0.016,0-0.046-0.008-0.054-0.015 c-4.05-1.505-8.943-3.154-14.094-4.757c-0.319-0.091-0.63-0.19-0.95-0.296c1.11-2.469,2.637-4.886,3.678-7.423 c0.182-0.395,0.335-0.776,0.464-1.148c0.015-0.03,0.03-0.068,0.045-0.114c0.008-0.037,0.023-0.091,0.038-0.136 c0.114-0.373,0.228-0.76,0.296-1.11c0.934,0.174,1.869,0.365,2.773,0.532c0.016,0.015,0.03,0.015,0.046,0.015 c0.03,0,0.053,0.016,0.076,0.016c1.732,0.334,3.374,0.638,4.893,0.911c0.076,0.016,0.152,0.03,0.243,0.046 c1.528,0.274,4.726,1.17,7.53,1.246c0.889,0.106,1.671,0.03,2.363-0.198c1.406-0.312,2.439-1.079,2.705-2.584 c0.045-0.212,0.068-0.418,0.083-0.638c1.3,0.509,2.621,0.942,3.959,1.352c0.243,0.068,0.494,0.152,0.744,0.221 c1.292,0.372,2.599,0.699,3.921,0.965c0.099,0.03,0.19,0.061,0.296,0.083c0.288,0.054,0.585,0.099,0.882,0.16 c0.311,0.046,0.63,0.129,0.957,0.183c0.107,0.015,0.213,0.03,0.312,0.045c0.782,0.106,1.58,0.213,2.37,0.289 c0.35,0.851,0.684,1.725,0.988,2.591c0.319,0.859,0.608,1.74,0.866,2.622c0.046,0.152,0.068,0.273,0.106,0.402 c0.212,0.706,0.41,1.421,0.593,2.15c0.083,0.396,0.174,0.79,0.265,1.201c0.099,0.44,0.213,0.896,0.304,1.352 c0.091,0.472,0.175,0.958,0.251,1.436c0.076,0.372,0.145,0.752,0.205,1.132c0.076,0.524,0.152,1.033,0.212,1.55 c0.046,0.349,0.099,0.698,0.129,1.056c0.054,0.524,0.114,1.057,0.16,1.588c0.03,0.335,0.053,0.684,0.083,1.034 c0.046,0.539,0.068,1.078,0.091,1.611c0.016,0.334,0.03,0.668,0.046,1.01c0.015,0.524,0.023,1.041,0.03,1.558 c0,0.471,0,0.912-0.008,1.367c0,0.403-0.008,0.79-0.015,1.2c-0.024,0.35-0.038,0.684-0.054,1.018 c-0.061,1.428-0.144,2.865-0.289,4.286c-0.03,0.327-0.068,0.638-0.099,0.957c-0.114,1.026-0.243,2.037-0.388,3.055 c-0.144,0.972-0.304,1.945-0.471,2.91c-0.114,0.639-0.228,1.269-0.35,1.908c-0.174,0.866-0.357,1.709-0.547,2.568 c-0.045,0.213-0.106,0.411-0.152,0.615c-0.175,0.752-0.365,1.52-0.554,2.272c-1.444,5.456-3.313,10.819-5.554,16.032 c-0.205,0.501-0.44,0.988-0.653,1.489c-0.524,1.14-1.049,2.279-1.596,3.404c-0.274,0.539-0.532,1.078-0.821,1.626 c-0.501,0.995-1.025,1.96-1.565,2.918c-1.755,3.199-3.685,6.322-5.797,9.315c-0.038,0.046-0.068,0.091-0.099,0.137 C323.136,472.634,318.227,478.128,312.71,482.846z M412.83,379.437v0.076c-0.426,15.56-1.558,30.984-4.909,46.249 c-0.137,0.631-0.296,1.253-0.44,1.876c-0.213,0.965-0.448,1.93-0.692,2.888c-0.319,1.261-0.646,2.522-1.003,3.791 c-0.859,2.978-1.725,5.95-2.728,8.874c-0.038,0.084-0.076,0.19-0.107,0.282c-0.554,1.565-1.132,3.1-1.732,4.642 c-0.06,0.152-0.121,0.304-0.183,0.456c-0.501,1.147-1.413,2.553-1.679,3.882l-0.205,0.456l0.555,2.119 c0.076,0.16,0.136,0.342,0.212,0.51c0.638,1.945,1.421,3.844,1.892,5.866c0.228,1.003,0.394,1.998,0.531,2.993 c0.023,0.206,0.054,0.395,0.068,0.608c0.083,0.653,0.114,1.306,0.145,1.96c0.166,4.414-0.813,8.776-3.853,12.172 c-0.174,0.19-0.357,0.38-0.539,0.562c-0.137,0.122-0.258,0.274-0.395,0.388c-0.532,0.51-1.116,0.95-1.71,1.39 c-0.205,0.137-0.403,0.304-0.608,0.426c-0.175,0.129-0.365,0.228-0.547,0.334c-0.288,0.182-0.578,0.373-0.867,0.532 c-1.891,1.056-3.83,1.792-6.177,2.53c-4.148,1.344-8.48,2.446-12.833,3.358c-0.631,0.129-1.285,0.289-1.923,0.41 c-0.676,0.137-1.344,0.252-2.036,0.373c-0.904,0.167-1.816,0.319-2.72,0.471c-1.2,0.19-2.401,0.365-3.602,0.54 c-1.041,0.129-2.074,0.265-3.108,0.387c-0.608,0.061-1.2,0.122-1.808,0.19c-1.626,0.16-3.268,0.296-4.901,0.388 c-3.397,0.22-6.77,0.288-10.121,0.19c-3.549-0.114-7.089-0.478-10.432-1.178c-0.03-0.007-0.076-0.015-0.106-0.022 c-1.11-0.236-2.211-0.509-3.267-0.828c-0.699-0.213-1.383-0.456-2.029-0.714c-0.015-0.016-0.023-0.016-0.03-0.016 c-1.292-0.524-2.454-1.155-3.434-1.884c-0.494-0.35-0.957-0.752-1.375-1.185c1.474-1.489,2.894-3.024,4.27-4.59 c0.129-0.136,0.25-0.288,0.38-0.425c0.426-0.486,0.866-0.988,1.292-1.49c0.843-0.995,1.618-2.058,2.416-3.1 c0.114-0.144,0.228-0.281,0.334-0.426c3.837-5.06,7.172-10.5,9.938-16.122c0.122-0.228,0.236-0.472,0.35-0.707 c0.19-0.372,0.41-0.752,0.585-1.132c0.372-0.82,0.714-1.656,1.079-2.484c0.456-1.011,0.912-2.014,1.338-3.047 c0.228-0.532,0.418-1.064,0.63-1.61c0.563-1.414,1.132-2.819,1.634-4.255c0.311-0.866,0.577-1.733,0.874-2.606 c0.311-0.965,0.661-1.922,0.957-2.887c0.061-0.19,0.114-0.402,0.167-0.592c0.076-0.236,0.137-0.494,0.213-0.73 c0.517-1.8,1.018-3.609,1.451-5.448c0.015-0.083,0.038-0.152,0.06-0.236c1.292-5.402,2.127-10.956,2.424-16.548 c0.008-0.175,0.008-0.342,0.023-0.509c0.046-0.829,0.068-1.656,0.084-2.493c0.015-0.622,0.008-1.261,0.008-1.884 c-0.008-0.35,0-0.7-0.008-1.049c-0.016-0.942-0.061-1.9-0.107-2.842v-0.038l-0.008-0.03c-0.045-0.897-0.114-1.809-0.19-2.705 c0-0.038-0.008-0.053-0.015-0.083c-0.334-3.518-0.92-7.006-1.793-10.44c-0.076-0.282-0.145-0.57-0.228-0.859 c-0.167-0.608-0.342-1.215-0.532-1.831c-0.136-0.486-0.296-0.958-0.456-1.452c-0.152-0.448-0.304-0.911-0.471-1.367 c-0.349-0.966-0.714-1.938-1.117-2.895c0.548-0.129,1.087-0.289,1.619-0.472c0.015-0.015,0.038-0.015,0.061-0.03 c7.658-2.629,13.798-9.322,18.949-15.256c0.258-0.304,0.509-0.623,0.783-0.927c0.722-0.851,1.421-1.71,2.127-2.568 c4.475-5.433,8.662-11.109,12.727-16.86c0.236-0.327,0.471-0.661,0.699-0.995c0.494-0.699,0.996-1.391,1.482-2.098 c3.586-5.129,7.301-10.25,10.614-15.575l0.912-1.368c2.226-3.518,4.141-7.264,5.66-11.078c0.411-1.018,0.79-2.06,1.163-3.1 c0.38,1.14,0.744,2.302,1.086,3.464c0.289,0.95,0.562,1.915,0.798,2.887c1.474,5.942,2.523,12.051,3.176,18.236 c1.262,12.218,1.558,24.648,1.284,37.086C412.845,378.693,412.838,379.11,412.83,379.437z"/> </g> </g>
</svg>